<?xml version="1.0" standalone="no"?>
<!DOCTYPE svg PUBLIC "-//W3C//DTD SVG 1.1//EN" "http://www.w3.org/Graphics/SVG/1.1/DTD/svg11.dtd" >
<!--
2018-6-7: Created.
-->
<svg xmlns="http://www.w3.org/2000/svg">
<metadata>
Created by FontForge 20120731 at Thu Jun  7 14:03:51 2018
 By root

</metadata>
<defs>
<font id="twoo-icons-v3" horiz-adv-x="512" >
  <font-face 
    font-family="icons"
    font-weight="500"
    font-stretch="normal"
    units-per-em="512"
    panose-1="2 0 6 9 0 0 0 0 0 0"
    ascent="448"
    descent="-64"
    bbox="-20.3096 -79.0586 527.059 463.059"
    underline-thickness="25.6"
    underline-position="-51.2"
    unicode-range="U+F101-F336"
  />
    <missing-glyph />
    <glyph glyph-name="ImportedLayers3" unicode="&#xf101;" 
d="M291.2 322.928v0c16.5762 0 30 -13.04 30 -29.1035v-145.488c0 -16.0635 -13.4238 -29.1035 -30 -29.1035h-180.032c-16.5596 0 -30 13.04 -30 29.1035v145.488c0 16.0635 13.4404 29.1035 30 29.1035v14.5439c0 48.1445 40.3682 87.2959 90.0156 87.2959
c49.6484 0 90.0166 -39.1514 90.0166 -87.2959v-14.5439zM141.168 337.472v-14.5439h120.032v14.5439c0 32.0967 -26.9121 58.1924 -60.0166 58.1924c-33.1035 0 -60.0156 -26.0957 -60.0156 -58.1924zM201.184 191.984v0c16.5762 0 30 13.04 30 29.1035
c0 16.0645 -13.4238 29.1045 -30 29.1045c-16.5596 0 -30 -13.0244 -30 -29.1045s13.4404 -29.1035 30 -29.1035z" />
    <glyph glyph-name="account" unicode="&#xf102;" 
d="M490.784 384.048c21.3437 0 21.3437 -21.3438 21.3437 -21.3438v-341.424c0 -21.3447 -21.3437 -21.3447 -21.3437 -21.3447h-469.44c-21.3438 0 -21.3438 21.3447 -21.3438 21.3447v341.424s21.3438 21.3438 21.3438 21.3438h469.44zM138.704 309.36
c-29.4561 0 -53.3438 -23.8887 -53.3438 -53.3447s23.8721 -53.3438 53.3438 -53.3438c29.4561 0 53.3438 23.8721 53.3438 53.3438c0 29.4727 -23.8721 53.3447 -53.3438 53.3447zM213.008 74.6396c0 0 21.7119 106.704 -74.3037 106.704
s-74.3037 -106.704 -74.3037 -106.704h148.607zM437.456 74.6396c5.85547 0 10.6719 4.80078 10.6719 10.6729c0 5.87109 -4.81641 10.6719 -10.6719 10.6719h-149.376c-5.87207 0 -10.6719 -4.80078 -10.6719 -10.6719c0 -5.87207 4.7998 -10.6729 10.6719 -10.6729
h149.376zM437.456 117.312c5.85547 0 10.6719 4.7832 10.6719 10.6719c0 5.8877 -4.81641 10.6719 -10.6719 10.6719h-149.376c-5.87207 0 -10.6719 -4.7998 -10.6719 -10.6719s4.7998 -10.6719 10.6719 -10.6719h149.376zM437.456 160
c5.85547 0 10.6719 4.7998 10.6719 10.6719s-4.81641 10.6719 -10.6719 10.6719h-149.376c-5.87207 0 -10.6719 -4.7998 -10.6719 -10.6719s4.7998 -10.6719 10.6719 -10.6719h149.376zM437.456 202.672c5.85547 0 10.6719 4.7998 10.6719 10.6719
s-4.81641 10.6719 -10.6719 10.6719h-149.376c-5.87207 0 -10.6719 -4.7998 -10.6719 -10.6719s4.7998 -10.6719 10.6719 -10.6719h149.376zM437.456 245.36c5.85547 0 10.6719 4.7998 10.6719 10.6719s-4.81641 10.6719 -10.6719 10.6719h-149.376
c-5.87207 0 -10.6719 -4.7998 -10.6719 -10.6719s4.7998 -10.6719 10.6719 -10.6719h149.376zM437.456 288.032c5.85547 0 10.6719 4.7998 10.6719 10.6719s-4.81641 10.6719 -10.6719 10.6719h-149.376c-5.87207 0 -10.6719 -4.7998 -10.6719 -10.6719
s4.7998 -10.6719 10.6719 -10.6719h149.376z" />
    <glyph glyph-name="add" unicode="&#xf103;" 
d="M256 448c141.392 0 256 -114.608 256 -256c0 -141.376 -114.624 -256 -256 -256s-256 114.624 -256 256c0 141.392 114.624 256 256 256zM416 160v64h-128v128h-64v-128h-128v-64.4961l128 0.192383v-127.696h64v127.808z" />
    <glyph glyph-name="addPhoto" unicode="&#xf104;" 
d="M292.192 383.904h0.015625c15.376 0 27.8398 -10.5127 27.8398 -23.5039v-176.896c0 -12.96 -12.4639 -23.4883 -27.8398 -23.4883h-264.352c-15.376 0 -27.8408 10.5127 -27.8408 23.4883v176.896c0 12.9756 12.4648 23.5039 27.8408 23.5039h59.4395
c0 15.5674 13.7119 32.0957 29.0879 32.0957h87.2803c15.376 0 29.0879 -16.5283 29.0879 -32.0957h59.4404zM159.68 202.256c40.1123 0 72.6406 32.96 72.6406 73.584s-32.5283 73.5684 -72.6406 73.5684c-40.1113 0 -72.6396 -32.9443 -72.6396 -73.5684
s32.5283 -73.584 72.6396 -73.584zM160.32 317.024c22.3516 0 40.4795 -19.2002 40.4795 -41.8408c0 -22.6396 -18.1279 -40.9912 -40.4795 -40.9912c-22.3525 0 -42.1445 18.3516 -42.1445 40.9912c0 22.6406 19.792 41.8408 42.1445 41.8408zM416 96h96v-32h-96v-96h-32
v96h-96v32h96v96l32 -0.0644531v-95.9355z" />
    <glyph glyph-name="addSmiley" unicode="&#xf105;" 
d="M416 64h96v-32h-96v-96h-32v96h-96v32h96v96l32 -0.0644531v-95.9355zM175.968 448c97.2646 0 176.032 -78.7842 176.032 -176c0 -97.248 -78.7676 -176.032 -176.032 -176.032c-97.1836 0 -175.968 78.7842 -175.968 176.032c0 97.2158 78.7676 176 175.968 176z
M244.656 344.208c-14.0166 0 -25.3603 -11.3604 -25.3603 -25.3604s11.3437 -25.3594 25.3603 -25.3594c14.0156 0 25.3594 11.3594 25.3594 25.3594s-11.3594 25.3604 -25.3594 25.3604zM107.344 344.208c-14 0 -25.3594 -11.3604 -25.3594 -25.3604
s11.3438 -25.3594 25.3594 -25.3594c14 0 25.3604 11.3594 25.3604 25.3594s-11.3604 25.3604 -25.3604 25.3604zM176 132.608c52.4961 0 98.5918 34.4473 125.488 86.6074h-251.008c26.8955 -52.1602 73.0557 -86.6074 125.52 -86.6074z" />
    <glyph glyph-name="admin" unicode="&#xf106;" 
d="M489.12 -40.5117c-29.1357 -30.1602 -75.3604 -30.9121 -104.944 -2.54395c-1.69531 1.80762 -7.59961 8.08008 -15.0557 15.9834l-59.2637 63.1367c-0.496094 0.527344 -1.02441 1.02344 -1.53613 1.51953c-10.6562 9.66406 -26.7041 9.36035 -37.0088 -1.2959
c-10.8154 -11.2002 -11.0557 -29.4561 -0.511719 -40.6562c0.0322266 -0.0322266 0.0322266 -0.0800781 0.0478516 -0.112305c0.0166016 -0.03125 0 -0.111328 0.0322266 -0.143555c9.36035 -9.93555 24.0479 -11.168 34.7998 -3.48828
c1.36035 1.15234 2.67188 2.38379 3.93652 3.69629c6.16016 6.36816 8.7998 14.0801 8 22.3682l39.8555 -40.1445c-3.55176 -7.00781 -8.16016 -12.7041 -13.8232 -18.5752c-30.0488 -31.1045 -78.3682 -31.1523 -107.776 0v0
c-30.0645 31.1191 -30.5439 81.7754 -1.13573 112.991c0.607422 0.65625 1.24805 1.26465 1.87207 1.88867c0 0 0.303711 0.319336 0.447266 0.463867c13.8721 13.5361 31.5039 20.5596 49.3447 21.0723c0.0791016 0 0.15918 0.015625 0.239258 0.015625
c0.704102 0.015625 1.39258 0.0478516 2.09668 0.0478516l-0.0322266 -0.0322266c19.1201 0.608398 38.3682 -6.17578 53.3438 -20.5439c1.67969 -1.79199 7.45605 -7.55176 14.7686 -15.5039v0l59.5039 -63.4561
c0.015625 -0.015625 0.015625 -0.271484 0.0478516 -0.303711s0.015625 -0.0644531 0.015625 -0.112305c10.5918 -11.1514 27.7285 -11.3594 38.5283 -0.191406c1.26367 1.31152 2.46387 2.6875 3.56738 4.0957c7.45605 11.1836 6.48047 26.5918 -2.87988 36.5283
c-0.015625 0.015625 -0.111328 0.015625 -0.143555 0.03125c-0.0322266 0.0166016 -0.0801086 0.0166016 -0.0957336 0.0488281c-1.16797 1.23145 -2.41602 2.33594 -3.74414 3.2959c-0.768555 0.496094 -1.82419 1.16797 -3.08786 1.95117
c-10.2402 5.52051 -23.2324 3.76074 -31.9521 -5.26367c-1.2959 -1.34375 -2.41602 -2.76758 -3.4082 -4.27149c-3.69629 -5.84082 -5.15234 -11.8721 -4.40039 -18.5605l-39.7598 40.7363c0.144531 0.288086 0.288086 0.591797 0.431641 0.879883
c0.800781 1.59961 1.69629 2.30371 2.65625 3.8877h-0.015625c0.160156 0.272461 0.335938 0.543945 0.511719 0.816406c0.0644531 0.112305 0.12793 0.223629 0.208008 0.320309c2.71973 4.36719 5.87207 8.51172 9.50391 12.3516
c0.704102 0.751953 1.44043 1.47168 2.17578 2.19238c-0.0957031 -0.0966797 -0.208008 -0.176758 -0.319336 -0.272461c0.160156 0.144531 0.319336 0.288086 0.463867 0.431641c13.8721 13.5361 31.5039 20.5605 49.3438 21.0723
c0.0800781 0 0.160156 0 0.240234 0.0166016c0.704102 0.015625 1.3916 0.015625 2.0957 0.015625s1.39258 0 2.09668 -0.015625c0.0791016 0 0.15918 0 0.239258 -0.0166016c17.8398 -0.511719 35.4727 -7.53613 49.3447 -21.0723
c0.15918 -0.143555 0.447266 -0.463867 0.447266 -0.463867c0.624023 -0.624023 1.26465 -1.23145 1.87207 -1.8877c29.4082 -31.2158 28.9443 -81.8721 -1.13577 -113.008zM212.736 -62.832l0.03125 -0.0478554c0.368164 -0.400391 0.75293 -0.784176 1.12012 -1.16796
h-213.855v24.5439c9.07227 52.2236 42.8955 74.5117 85.3438 93.5361c21.2324 9.51953 75.792 25.1514 83.0078 45.5996c2.99219 8.48047 3.72852 30.2881 1.16797 40.9277c-1.08789 4.49609 -5.93555 8.64062 -9.35938 14.0322
c-7.69629 12.0957 -13.1846 25.5361 -16.3682 40.9121c-2.65625 4.49609 -7.45605 5.75977 -10.5283 9.36035c-10.6396 12.4473 -15.6162 38 -9.35938 54.9434c1.42383 3.87207 4.3672 7.74414 4.67188 11.6963c0.335938 4.35156 -2.64062 11.4561 -3.50391 16.3682
c-17.1201 96.4639 19.5518 159.296 112.239 160.16h2.33592c26.0967 -1.96777 49.6484 -6.48047 60.8008 -23.376c10.2715 -1.02441 18.6396 -3.95215 24.5439 -9.36035c0 0 10.9121 -8.57617 19.8721 -18.7041c22.7832 -28.2402 17.1035 -89.5195 5.83984 -126.256
c9.93555 -15.8721 9.04004 -41.4238 0 -58.4482c-4.08008 -7.69531 -11.1846 -10.832 -15.2002 -16.3682c-3.26367 -11.1836 -5.50391 -20.1279 -10.5283 -30.3994c-4.38379 -8.94434 -13.2793 -16.9766 -15.2002 -25.7119
c-0.81543 -3.77637 -0.975586 -7.69629 -0.799805 -11.7764l-15.6475 0.0800705c-0.768555 0.0322266 -1.53613 0.0322266 -2.30469 0.0322266h-1.26367h-0.895508h-0.224609c-1.00781 0 -1.85547 -0.0322266 -2.54395 -0.0478516l-0.608398 -0.0166016
c-0.303711 -0.015625 -0.591797 -0.0312424 -0.879883 -0.0478439c-26.1758 -0.959961 -50.9756 -11.6475 -69.9199 -30.1279c-0.271484 -0.255859 -0.55957 -0.55957 -0.879883 -0.879883c-0.65625 -0.639648 -1.48828 -1.45605 -2.38379 -2.41602
c-19.9365 -21.168 -30.7363 -49.1523 -30.4482 -78.7998c0.303711 -29.5039 11.5684 -57.2959 31.7285 -78.2402z" />
    <glyph glyph-name="advancedSearch" unicode="&#xf107;" 
d="M114.848 -54.0957l0.0166016 -0.0166016c-13.2158 12.8799 -13.2158 33.7607 0 46.6406l97.4395 94.7041c1.12012 1.07129 2.38477 1.93555 3.56836 2.83203c-16.4482 24.5273 -26.0801 53.7754 -26.0801 85.248c0 86.5273 72.1436 156.64 161.2 156.64
c89.0234 0 161.216 -70.1279 161.216 -156.64c0 -86.5127 -72.1924 -156.608 -161.216 -156.608c-32.3838 0 -62.5117 9.37598 -87.8086 25.3438c-0.927734 -1.16797 -1.79199 -2.36816 -2.87988 -3.43945l-97.4238 -94.7041
c-6.67188 -6.44824 -15.3438 -9.66406 -24 -9.66406c-8.6875 0 -17.376 3.23144 -24.0322 9.66406zM227.6 175.328c0 -66.0801 55.3926 -119.856 123.376 -119.856c68.0166 0 123.376 53.7764 123.376 119.856c0 66.0957 -55.3438 119.872 -123.376 119.872
c-67.9834 0 -123.376 -53.7764 -123.376 -119.872zM147.248 448.64l37.792 -43.5039l55.1035 19.2959l-30.9111 -48.3672l35.9512 -44.9609l-56.8955 13.6328l-32.9121 -47.1045l-4.25586 56.7686l-56.2881 15.8721l54.2715 21.4717zM85.3115 237.328l16.2246 -35.6318
l40.0156 2.39941l-29.8555 -26l14.7197 -36.2393l-34.6885 19.5518l-30.9277 -24.7998l8.41602 38.0801l-33.8242 20.9111l39.8887 3.98438zM41.1201 312.32l1.9043 -25.9043l25.6641 -7.24805l-24.7686 -9.77637l0.832031 -25.9512l-17.2158 19.8555l-25.1523 -8.78418
l14.1279 22.0322l-16.3516 20.5283l25.9355 -6.24023zM352.4 245.728c-36 -5.32715 -65.0889 -32.1758 -72.416 -66.7998c-1.08789 -5.15137 -5.76074 -8.6875 -10.9766 -8.6875c-0.751953 0 -1.50391 0.0634766 -2.27148 0.223633
c-6.08008 1.21582 -9.98438 6.95996 -8.73633 12.8486c9.2002 43.5039 45.7764 77.2471 91.0078 83.9199c6.14453 0.895508 11.8398 -3.16797 12.7842 -9.12012s-3.28027 -11.4883 -9.3916 -12.4004v0.015625z" />
    <glyph glyph-name="android" unicode="&#xf108;" 
d="M448 288c17.5996 0 32 -14.4004 32 -32v-128c0 -17.5996 -14.4004 -32 -32 -32s-32 14.4004 -32 32v128c0 17.5996 14.4004 32 32 32zM64 288c17.5996 0 32 -14.4004 32 -32v-128c0 -17.5996 -14.4004 -32 -32 -32s-32 14.4004 -32 32v128c0 17.5996 14.4004 32 32 32z
M112 80v176h288v-176c0 -26.5117 -21.4883 -48 -48 -48h-16v-64c0 -17.5996 -14.4004 -32 -32 -32s-32 14.4004 -32 32v64h-32v-64c0 -17.5996 -14.4004 -32 -32 -32s-32 14.4004 -32 32v64h-16c-26.5117 0 -48 21.4883 -48 48zM315.296 403.248l0.0322266 -0.015625
c45.3115 -20.5127 78.1279 -63.792 83.8076 -115.248h-286.224c5.69629 51.4561 38.4961 94.7354 83.8076 115.248l-20.2559 38.9111c-1.02344 1.95215 -0.255859 4.36816 1.69629 5.39258c1.95215 1.02344 4.36816 0.255859 5.3916 -1.69629l20.5605 -39.4883
c16.1113 6.22461 33.6152 9.64844 51.9033 9.64844s35.792 -3.42383 51.8887 -9.64844l20.5596 39.4883c1.00781 1.95215 3.44043 2.7041 5.39258 1.69629c1.95117 -1.00781 2.71973 -3.44043 1.69531 -5.39258zM192 312.8c12.8164 0 23.2002 10.3838 23.2002 23.2002
s-10.3838 23.2002 -23.2002 23.2002s-23.2002 -10.3838 -23.2002 -23.2002s10.3838 -23.2002 23.2002 -23.2002zM320 312.8c12.8164 0 23.2002 10.3838 23.2002 23.2002s-10.3838 23.2002 -23.2002 23.2002s-23.2002 -10.3838 -23.2002 -23.2002
s10.3838 -23.2002 23.2002 -23.2002z" />
    <glyph glyph-name="anonymous" unicode="&#xf109;" 
d="M511.712 -64.4961l0.015625 0.0322266h-511.231l-0.511719 3.2002c0 53.6475 32.9111 94.624 96.0312 125.296c27.0566 43.3916 -32 127.728 -32 127.728l112.528 -46.8799c-9.24805 17.1523 -17.0244 37.1045 -17.0244 62.6396v16h-63.5039l64 64.2402l32 160.24
l64 -32.0322l64 31.9365l32 -160.128l64 -64.2568h-64.4961c1.00879 0 0 -10.8799 0 -17.0078c0 -25.5518 -9.85547 -44.0801 -19.1357 -61.1035l115.632 46.6074s-57.7598 -84.3193 -32 -128c63.9688 -30.6396 95.7608 -71.04 95.7608 -125.119zM183.632 97.7441
c-5.87207 -5.00781 -7.00781 -14.4004 -2.54395 -20.9922c2.62402 -3.8877 6.5918 -5.91992 10.624 -5.91992c2.81641 0 5.64844 0.992188 8.06445 3.05566l51.1357 43.6963c5.85548 5.00781 7.00783 14.4004 2.54398 20.9922
c-4.46387 6.5918 -12.8164 7.87207 -18.6885 2.86426z" />
    <glyph glyph-name="appearance" unicode="&#xf10a;" 
d="M256 448c141.392 0 256.016 -114.608 256.016 -256s-114.624 -256 -256.016 -256c-141.376 0 -256 114.608 -256 256s114.608 256 256 256zM252.128 397.152c-18.208 0 -33.0557 -14.832 -33.0557 -33.0566c0 -18.3359 14.8477 -33.1836 33.0557 -33.1836
c18.3359 0 33.1846 14.8477 33.1846 33.1836c0 18.208 -14.832 33.0566 -33.1846 33.0566zM395.584 290.24l0.0322266 0.015625c9.32812 0.383789 16.5283 8.33594 16.1602 17.6641c-0.320312 9.39258 -8.20801 16.6562 -17.5527 16.2725l-117.392 -9.68066h-48.3515
l-110.257 9.48828c-9.31152 0.751953 -17.7754 -6.20801 -18.4639 -15.5996c-0.767578 -9.3125 5.56836 -17.5039 14.8799 -18.2568l90.7363 -12.3516v-100.208l-41.3115 -156.304c-3.77637 -9.64844 2.06348 -20.5283 11.6152 -24.2559
c9.64844 -3.76074 20.4004 0.671875 24.1602 10.3359l44.9766 148h15.0556l48.8799 -144.992c2.51172 -10.0645 12.6885 -15.5361 22.624 -13.0557c9.93652 2.47949 16 12.5439 13.4717 22.6074l-47.7119 159.28l-0.0478516 98.5918z" />
    <glyph glyph-name="apple" unicode="&#xf10b;" 
d="M451.808 70c-16.7354 -48.4961 -61.9356 -134.4 -113.535 -135.344c-34.2246 -0.65625 -45.2002 20.2881 -84.3203 20.2881c-39.1201 0 -51.3125 -19.6484 -83.6641 -20.9443c-54.7363 -2.06445 -134.353 124.016 -134.353 233.968
c0 101.008 65.5361 151.088 127.024 152.017c32.9922 0.591797 64.1279 -22.2402 84.2725 -22.2402c20.1914 0 58.0156 27.4395 97.792 23.4082c16.6396 -0.688477 63.376 -6.7041 93.3916 -50.5928c-79.6162 -51.9355 -72.0644 -160.607 13.3916 -200.56zM345.552 444.672
c6.56055 -59.6963 -46.7998 -122 -102.336 -117.696c-6.86426 52.1768 42.1924 115.28 102.336 117.696z" />
    <glyph glyph-name="arrowDown" unicode="&#xf10c;" 
d="M0 293.36l55.5039 53.2793l200.496 -199.792l200.496 199.792l55.5039 -53.2793l-256 -256z" />
    <glyph glyph-name="arrowDownSmall" unicode="&#xf10d;" 
d="M416 288l-160 -192l-160 192h320z" />
    <glyph glyph-name="arrowLeft" unicode="&#xf10e;" 
d="M410.64 -8.49609l-53.2793 -55.5039l-256 256l256 256l53.2793 -55.5039l-199.792 -200.496z" />
    <glyph glyph-name="arrowLeftSmall" unicode="&#xf10f;" 
d="M352 32l-192 160l192 160v-320z" />
    <glyph glyph-name="arrowLeftThin" unicode="&#xf110;" 
d="M399.36 -36.5596l-27.8564 -27.4404l-258.864 255.904l258.864 256.096l27.8564 -27.4404l-231.521 -228.56z" />
    <glyph glyph-name="arrowRight" unicode="&#xf111;" 
d="M154.64 -64l-53.2793 55.5039l199.792 200.496l-199.792 200.496l53.2793 55.5039l256 -256z" />
    <glyph glyph-name="arrowRightSmall" unicode="&#xf112;" 
d="M160 352l192 -160l-192 -160v320z" />
    <glyph glyph-name="arrowRightThin" unicode="&#xf113;" 
d="M140.496 -64l-27.8564 27.4404l231.521 228.56l-231.521 228.56l27.8564 27.4404l258.864 -256.096z" />
    <glyph glyph-name="arrowUp" unicode="&#xf114;" 
d="M0 90.6396l256 256l256 -256l-55.5039 -53.2793l-200.496 199.792l-200.496 -199.792z" />
    <glyph glyph-name="arrowUpDownSmall" unicode="&#xf115;" 
d="M96 224l160 192l160 -192h-320zM416 160l-160 -192l-160 192h320z" />
    <glyph glyph-name="arrowUpSmall" unicode="&#xf116;" 
d="M96 96l160 192l160 -192h-320z" />
    <glyph glyph-name="band" unicode="&#xf117;" 
d="M133.216 -63.9844c-15.8555 0.176758 -36.5596 7.64844 -55.4717 20.0488c-30.416 19.9512 -54.7363 45.5039 -69.3604 79.1514c-23.6162 54.3359 4.49609 116.96 60.7363 136.528c12.6396 4.39941 25.2314 8.99219 37.5195 14.2715
c14.0967 6.04883 25.4727 15.7764 34.9766 27.8408c13.0234 16.5117 29.2637 28.3193 50.3838 32.3838c14.7676 2.84766 29.168 0.879913 42.7197 -5.15231c32.4805 -14.4482 56.5439 -37.8877 70.6084 -70.4639c14.0635 -32.5762 5.58398 -66.96 -22.7998 -89.376
c-20.0166 -15.792 -32.8486 -35.5039 -40.6562 -59.1836c-2.38379 -7.24805 -4.76855 -14.5127 -7.61621 -21.6006c-14.96 -37.3594 -54.6719 -64.5117 -101.056 -64.4316zM154.16 128.8c0.0322266 -21.3281 17.1357 -38.3193 38.5596 -38.2715
c21.1201 0.03125 38.3047 17.1201 38.3526 38.1592c0.0634766 21.248 -17.1201 38.4482 -38.4326 38.4648c-21.3916 0.015625 -38.5117 -17.04 -38.4795 -38.3525zM140.816 30.2559c-1.36035 1.79199 -2.1123 3.07226 -3.13672 4.0957
c-12.5117 12.5449 -25.0557 25.04 -37.584 37.5527c-5.8877 5.87207 -5.8877 5.87207 -11.8398 -0.112305c-3.42383 -3.45605 -3.43945 -4.30371 0.0166016 -7.74414c12.9756 -12.96 25.9355 -25.9521 39.0234 -38.8154c1.36036 -1.34473 4.35255 -3.02441 5.24805 -2.46484
c2.99219 1.88867 5.37598 4.73633 8.25586 7.48828h0.0166016zM268.8 230.24c0.927734 1.00781 1.80859 2.06348 2.78418 3.02344c45.6162 45.5039 91.248 91.0088 136.864 136.496c3.77539 3.75977 4.73535 3.79199 8.44824 0.12793
c5.9834 -5.91992 11.9199 -11.9033 17.9033 -17.8232c2.46387 -2.44824 2.52832 -4.52832 -0.0634766 -7.12012c-46.1279 -45.9043 -92.1768 -91.8721 -138.256 -137.809c-0.624023 -0.624023 -1.32812 -1.16797 -1.55273 -1.35938
c-8.27148 8.5752 -16.4316 17.0557 -24.5918 25.5195c-0.511719 -0.351562 -1.00781 -0.704102 -1.51953 -1.07227zM470.096 448c1.55273 -1.07227 2.81638 -1.69629 3.77634 -2.63965c11.9678 -11.8721 23.9043 -23.7607 35.8076 -35.6807
c3.2002 -3.19922 3.08789 -4.6875 -0.351593 -7.40723c-19.7441 -15.5684 -39.5517 -31.0889 -59.2324 -46.7363c-2.91211 -2.30371 -5.02344 -2.19238 -7.56738 0.399414c-7.42383 7.55273 -14.9443 15.0244 -22.4961 22.4482
c-2.43262 2.38379 -2.65625 4.44824 -0.416016 7.24805c15.7598 19.7285 31.3916 39.584 47.1201 59.3438c0.879883 1.10449 2.14359 1.9209 3.37601 3.00879z" />
    <glyph glyph-name="bank" unicode="&#xf118;" 
d="M1.00781 31.4717h510v-12.1436h-510v12.1436zM25.2959 53.168h461.424v-12.1436h-461.424v12.1436zM383.504 274.336h78.9277v-209.023h-412.848v209.023h78.9277v48.0322h40.4805c19.2314 16.6875 43.5039 27.7275 70.2402 30.4961
c0 0.223633 -0.0644531 0.448242 -0.0644531 0.6875c0 7.32812 5.95216 13.2803 13.2803 13.2803c7.32814 0 13.2793 -5.93555 13.2793 -13.2803c0 -0.239258 -0.0478516 -0.463867 -0.0634766 -0.6875c26.7363 -2.75195 51.0078 -13.8086 70.2402 -30.4961h47.5996
v-48.0322zM245.424 345.072l-0.015625 0.015625v-10.0322c2.60742 0.496094 3.93553 0.768555 6.57616 0.768555c3.45605 0 5.77541 -0.335938 8.99123 -0.976562v10.2246h-15.5518zM245.808 285.792h-0.015625c11.7764 -3.28027 24 -4.52832 24 -13.3604
c0 -8.25586 -9.50391 -10.0801 -15.7275 -10.0801c-9.52051 0 -17.8887 4.20801 -17.8887 14.9609h-17.2158c-0.335938 -19.9365 16.5283 -28.7686 34.416 -28.7686c22.0957 0 33.6318 11.0879 33.6318 25.9199c0 18.2402 -18 22.208 -24 23.5518
c-20.2715 5.10449 -24.1123 6 -24.1123 12.2402c0 6.7998 6.56055 9.16797 12.2246 9.16797c8.62402 0 15.4082 -2.60742 15.9834 -12.2236h17.2002c0 18.6719 -15.5039 26.0479 -32.3838 26.0479c-14.5918 0 -30.2236 -7.82422 -30.2236 -24.4639
c0 -14.9443 12.1113 -20.0479 24.1113 -22.9922zM300.656 225.232h-34.6084v-123.473h34.6084v123.473zM260.976 245.952v-0.0165863c-2.65527 -0.383789 -4.43164 -0.624023 -7.4873 -0.624023c-3.2002 0 -5.02441 0.288071 -8.06445 0.864243v-10.1113h15.5518v9.88768z
M206.064 225.232v-123.473h35.6797v123.473h-35.6797zM146.72 225.232v-123.473h35.0723v123.473h-35.0723zM365.296 77.4561v12.1436h-218.576v-12.1436h218.576zM365.296 101.744v123.472h-40.3359v-123.472h40.3359z" />
    <glyph glyph-name="birthday" unicode="&#xf119;" 
d="M341.968 274.096l-0.015625 -0.015625l106.24 -135.872v-202.224l-384.192 79.0234v199.248c10.624 5.60059 22.4004 10.8965 35.1201 15.9043c34.3994 13.5518 77.8076 27.0078 124.88 35.5361v-48.0801c0 -14.4004 14.5762 -29.9199 46.6562 -29.9199
s49.3438 15.7598 49.3438 30.1758v56.4795c8.6875 0.78418 13.04 -0.847656 21.9678 -0.255859zM413.056 -26.4004v58.4648l-313.936 65.7598v-59.6162zM413.056 62.5762v-0.0166016v59.5205l-313.936 65.8555l0.175781 -59.6152zM268.912 209.52v-0.015625
c-10.0801 0 -18.2559 2.67188 -18.2559 5.98438v142.592c0 2.1123 8.16016 3.82422 18.2559 3.82422s18.2715 -1.71191 18.2715 -3.82422v-142.592c0 -3.2959 -8.17578 -5.96875 -18.2715 -5.96875zM291.232 404.096c0 -10.3994 -10 -18.8154 -22.3047 -18.8154
c-12.3037 0 -22.3193 8.41602 -22.3193 18.8154c0 10.4004 9.98338 43.9043 22.3193 43.9043s22.3047 -33.5039 22.3047 -43.9043z" />
    <glyph glyph-name="bkgBadge" unicode="&#xf11a;" 
d="M483.248 187.44h-0.015625c2.71973 -21.9521 27.5351 -30.9121 16.3037 -58.1279c-7.53613 -18.0322 -36.2402 -22.2725 -41.9365 -41.9043c-4.41602 -15.2959 3.2002 -28.96 0 -41.9043c-2.41602 -9.77539 -10.7197 -19.5996 -18.9277 -22.9922
c-10.0957 -4.20801 -18.6719 -0.943359 -29.7275 -4.04785c-8.89648 -2.55957 -16.3848 -8.20801 -20.2725 -13.5361c-9.07227 -12.4961 -4.86426 -28.2559 -18.9443 -39.2314c-3.9834 -3.10449 -12.3516 -6.25586 -16.2236 -6.75195
c-18.4482 -2.36816 -31.0723 10.8154 -48.6875 8.12793c-23.6963 -3.58398 -26.9287 -25.6484 -43.248 -29.7285c-34.3359 -8.62402 -35.2168 27.3926 -66.2402 29.7285c-15.6484 1.16797 -22.7197 -10.1123 -40.5605 -9.48828
c-5.95117 0.272461 -16.6719 3.9043 -21.6475 8.12793c-10.9121 9.39258 -10.3359 24.0957 -16.2236 33.792c-3.61621 6.04785 -10.0801 14.4482 -20.2568 17.6162c-12.1279 3.75977 -21.9512 -0.400391 -32.4473 4.04785c-9.34473 3.93652 -16.624 13.7119 -18.9443 22.96
c-2.7998 11.3438 3.3916 25.5039 0 39.2324c-7.71191 31.2314 -45.5996 23.5674 -44.6084 59.4873c0.448242 16.0166 14.7363 24.4648 17.5684 37.8564c1.37598 6.35156 1.55176 12.7041 0 20.2715c-3.66406 18.0967 -24.6084 26.832 -16.208 52.7363
c5.95215 18.4004 32.5117 20.1758 40.5439 40.5439c7.67969 19.4883 -3.23145 28.8164 1.34375 45.9678c2.24023 8.35254 12.208 19.9365 21.6318 22.9922c8.57617 2.76855 19.9688 0.608398 29.7607 4.04785c8.35156 2.95996 16.2881 9.48828 20.2715 16.2246
c5.00781 8.47949 3.64844 19.9033 10.7842 29.7275c5.37597 7.37598 18.5283 13.1846 25.6641 13.5205c20.6562 0.943359 26.4316 -13.6328 47.3125 -8.09668c21.6152 5.71191 20.5918 23.7764 43.2637 28.3848c33.5518 6.81543 34.3203 -24 58.1602 -28.3848
c21.4395 -3.9834 33.7119 12.1445 54.0801 8.09668c4.94336 -0.976562 14.0957 -6.83203 17.5996 -10.8164c9.63184 -11.0078 8.27246 -29.1523 18.9277 -39.2324c2.48047 -2.36719 7.15234 -5.67969 9.47266 -6.76758c9.82324 -4.63965 22.0479 -1.08789 35.1357 -5.4082
c10.0957 -3.32812 20.0635 -16.2881 21.6162 -25.6797c2.75195 -16.6719 -4.91211 -26.2402 0 -40.5439c7.21582 -21.0078 35.3281 -21.792 41.9355 -41.9043c8.92773 -27.3438 -19.584 -41.8242 -16.2559 -68.9434z" />
    <glyph glyph-name="block" unicode="&#xf11b;" 
d="M0 192c0 141.392 114.608 256 256 256s256 -114.608 256 -256s-114.608 -256 -256 -256s-256 114.608 -256 256zM448 192c0 106.032 -85.9678 192 -192 192c-36.6084 0 -70.832 -10.2559 -99.9521 -28.0479l263.904 -263.904
c17.792 29.1045 28.0479 63.3281 28.0479 99.9521zM64 192c0 -106.032 85.9678 -192 192 -192c36.6084 0 70.832 10.2559 99.9521 28.0479l-263.904 263.904c-17.792 -29.1201 -28.0479 -63.3281 -28.0479 -99.9521z" />
    <glyph glyph-name="blockPerson" unicode="&#xf11c;" 
d="M363.552 225.056v0c79.792 2.12793 146.272 -60.8633 148.4 -140.688c2.1279 -79.8398 -60.8965 -146.256 -140.704 -148.384c-79.8398 -2.14453 -146.256 60.8633 -148.384 140.688s60.8633 146.256 140.688 148.384zM275.424 78.0645h0.0166016
c0.399414 -15.8242 4.7998 -30.5928 12.2236 -43.377l121.312 127.904c-13.2158 6.73633 -28.2393 10.3525 -44.0156 9.91992c-50.7363 -1.34375 -90.9121 -43.7119 -89.5361 -94.4473zM369.856 -11.4717h-0.0166016v0c50.7041 1.3916 90.8643 43.7119 89.5205 94.4316
c-0.432617 15.792 -4.84863 30.624 -12.2402 43.4404l-121.312 -127.92c13.1846 -6.75195 28.1924 -10.3369 44.0488 -9.95215zM155.952 416c66.9922 0 121.296 -54.3203 121.296 -121.424c0 -67.04 -54.3037 -121.424 -121.296 -121.424
c-67.1357 0 -121.44 54.3672 -121.44 121.424c-0.015625 67.1035 54.3203 121.424 121.44 121.424v0zM188.56 82.0156c0 -60.0957 28.5928 -113.296 72.5127 -146.016h-261.072v36v0c0.0644531 68.1279 22.0322 177.136 161.824 177.136
c13.8555 0 26.4961 -1.08789 38.1436 -3.08789c-7.34375 -19.9043 -11.4082 -41.4717 -11.4082 -64.0322z" />
    <glyph glyph-name="book" unicode="&#xf11d;" 
d="M462.32 386.848l0.03125 -0.015625c-0.335938 -109.952 -0.175751 -219.904 -0.191376 -329.856c0 -10.0635 -3.48831 -15.2158 -13.0078 -18.8477c-82.0322 -31.3115 -164.064 -62.624 -246.112 -93.8721c-20.9756 -8 -42.832 -9.31152 -64.9443 -7.66406
c-19.1035 1.42383 -37.8232 4.95996 -55.376 12.9443c-6.31934 2.86426 -12.4316 6.41602 -18.1113 10.3994c-10.0645 7.05664 -14.9287 16.832 -14.9121 29.4248c0.143555 107.92 0.0800781 215.823 0.0800781 323.743c0 20.0801 6.20801 29.7129 25.04 37.3604
c15.8877 6.44824 32 12.3359 48.0312 18.4482c67.4883 25.7598 134.992 51.5039 202.496 77.2637c14.3838 5.48828 25.2324 -1.85547 25.3125 -17.168c0.0478516 -10.0479 0.015625 -20.0957 0 -30.1436c0 -1.26465 -0.144531 -2.52832 -0.255859 -4.44824
c-10.4961 3.95215 -20.2568 7.74414 -30.1123 11.2324c-1.85645 0.655273 -4.36816 0.767578 -6.17578 0.0791016c-74.752 -28.3838 -149.456 -56.8799 -224.16 -85.3594c-0.543945 -0.208008 -1.04004 -0.496094 -2.38379 -1.15234
c3.31152 -1.63184 5.9834 -3.28027 8.89551 -4.35156c33.8564 -12.416 67.6963 -15.0723 102.225 -1.76074c79.3271 30.6084 158.928 60.5283 238.256 91.1846c13.1357 5.07227 25.4238 -3.08789 25.376 -17.4404zM65.248 258.752
c0 -13.2324 0.255859 -26.4795 -0.144531 -39.7119c-0.15918 -4.91211 1.36035 -7.3916 5.82422 -9.48828c30.5283 -14.3193 62.7686 -18.6396 96.0479 -16.7354c7.76074 0.431641 15.4404 1.95117 23.1523 2.95996v34.9121
c-1.37598 -0.304688 -2.49609 -0.544907 -3.61621 -0.800766c-33.2314 -7.71191 -65.6475 -4.49611 -97.0234 8.22459c-11.2002 4.52734 -23.1045 9.55177 -23.8086 24.9277c-0.431641 -1.56836 -0.431641 -2.92773 -0.431641 -4.28809zM187.296 19.2324
l0.0166016 -0.0166016c2.6875 0.480469 3.15137 1.77637 3.13574 4.14453c-0.0966797 9.45605 -0.0322266 18.9121 -0.0644531 28.3672c-0.015625 0.800781 -0.255859 1.61621 -0.416016 2.59277c-1.10352 -0.240234 -1.93555 -0.416016 -2.76758 -0.608398
c-33.9844 -7.98438 -67.0723 -4.63965 -99.0566 8.71973c-10.6074 4.43262 -21.8398 9.44043 -22.8799 23.8721c0 -15.2637 0.112305 -30.5439 -0.0957031 -45.8076c-0.0478516 -3.26367 1.00781 -4.92773 3.87207 -6.28809
c37.8076 -17.7764 77.2637 -22.2559 118.256 -14.9756z" />
    <glyph glyph-name="boost" unicode="&#xf11e;" 
d="M134.064 30.2559v0.0165997c3.59961 1.3916 7.19922 2.51172 11.0391 -1.68067c3.58398 -3.91992 2.40039 -7.26367 0.880859 -10.6396c-6.0166 -13.4404 -14.1768 -25.2002 -24.1768 -35.376c-26.5918 -26.2246 -61.1191 -37.2637 -101.359 -37.4561
c-6.14453 -0.0322266 -9.95215 3.66406 -9.91992 9.77637c0.208008 47.0557 14.7998 85.7119 49.376 112.287c7.34375 5.64844 16.1279 9.60059 24.3037 14.2402c3.04004 1.72852 6.35156 1.77637 9.69629 -1.48828c3.37598 -3.26367 3.13574 -6.47949 1.85547 -9.77539
c-4.0957 -10.5439 -6.01562 -21.8086 -4.33594 -34.208c0.879883 -6.43262 3.36035 -8.84863 9.87207 -9.67969c11.8242 -1.53613 22.6719 0.0791035 32.7686 3.9834zM506.576 437.44l0.015625 0.03125c13.4405 -59.2959 1.58405 -117.743 -32.0478 -175.216
c-26.2881 -44.9121 -62.5762 -83.9834 -103.344 -116.848c6.43164 -13.168 10.2559 -26.6719 11.4717 -40.8799c2.67188 -31.0723 -7.9043 -57.5361 -28.1602 -80.5439c-16.0801 -18.2559 -36.2559 -31.1201 -56.832 -43.5039
c-23.8076 -14.3203 -48.1758 -27.5527 -74.4639 -36.8164c-11.8076 -4.16016 -23.8555 -7.74414 -36.4639 -7.74414c-6.19238 0.015625 -12.752 0.688477 -18.5117 2.83203c-12.3203 4.56055 -15.1201 18.2725 -5.69629 27.4561
c5.95215 5.80762 13.2158 10.2402 19.5684 15.6797c6.7832 5.82422 13.6641 11.6484 19.6152 18.2881c8.80078 9.80859 11.1846 22.1924 11.1045 34.9922c-0.0322266 5.8877 -0.608398 11.7764 -1.08789 17.8564c-10.1279 -3.79199 -20.3838 -7.08887 -30.5605 -10.7363
c-2.71973 -0.975586 -4.49609 -0.543945 -6.33594 1.34375c-10.8799 11.1523 -21.9355 22.1279 -32.9434 33.168c-10.7363 10.752 -21.3926 21.6162 -32.2725 32.2246c-2.43164 2.38379 -3.04004 4.60743 -1.87207 8.35157c3.18457 10.1758 6.68848 20.2402 10.4961 30.208
c-4.38379 0.511719 -8.60742 1.04004 -12.8477 1.4082c-24.0322 2.11133 -42.4482 -7.64844 -56.416 -26.8643c-4.83203 -6.67188 -9.72852 -13.2959 -14.7998 -19.7764c-1.79199 -2.28711 -4.0166 -4.31934 -6.36816 -6.03125
c-8 -5.80859 -18.5283 -3.45605 -23.5039 5.15137c-3.91992 6.76855 -4.5127 14.2402 -4.12793 21.8242c0.863281 17.1846 6.08008 33.2959 12.7031 48.9121c15.2168 35.8877 33.9844 69.8877 57.9844 100.592c18.9277 24.208 42.8965 41.4404 74.208 45.9678
c22.7686 3.29688 44.2559 -1.2959 65.3926 -11.4551c12.1758 15.1836 25.2158 29.7598 39.2959 43.5518c34.832 34.1436 73.5351 62.0156 117.968 79.7754c45.5195 18.1924 90.1914 21.9688 134.032 11.8887c2.99121 -0.688477 4.15915 -2.25586 4.79977 -5.08789z
M447.36 320.64c17.8398 17.7441 17.9033 46.0166 0.143555 63.8242c-17.5039 17.5518 -45.8721 17.584 -63.4082 0.0800781c-17.4561 -17.4238 -17.5195 -46.0479 -0.143555 -63.6797c17.3438 -17.584 45.8398 -17.6807 63.4082 -0.224609z" />
    <glyph glyph-name="car" unicode="&#xf11f;" 
d="M28.1279 172.352c-0.864258 -17.8398 19.4082 -36.6875 45.2637 -42.0957c25.8564 -5.4082 47.5205 4.68848 48.3682 22.5117c0.864258 17.8564 -19.4082 36.6885 -45.2637 42.0967c-25.8564 5.40723 -47.5039 -4.67188 -48.3682 -22.5127v0zM255.088 424.816
c-58.3516 -0.384766 -126.352 -2.57617 -182.191 -16.5127c-4.96094 -0.975586 -5.53613 -6.39941 -5.53613 -6.39941l-4.78418 -131.904c-0.416016 -22.8799 24.7354 -33.2803 192.512 -33.8242c167.76 0.560547 192.912 10.96 192.512 33.8242l-4.7832 131.904
s-0.560547 5.42383 -5.52051 6.39941c-55.8398 13.9365 -123.855 16.1279 -182.208 16.5127v0zM482.032 172.352c-0.848633 17.8408 -22.5127 27.9209 -48.3682 22.5127c-25.8564 -5.4082 -46.1279 -24.2559 -45.2637 -42.0967
c0.847656 -17.8398 22.4961 -27.9199 48.3672 -22.5117c25.8721 5.4082 46.1123 24.2559 45.2481 42.0957v0h0.016571zM256 -15.0879l-15.3281 0.015624c-56.9922 0.240234 -112.88 1.36035 -159.376 4.92871v-26.9443c0 -14.7842 -11.5195 -26.752 -25.7441 -26.752
h-21.168c-14.2236 0 -25.7441 11.9678 -25.7441 26.752v56.2715c-0.55957 5.00879 -1.13574 10.7686 -1.71191 17.2168c-4.36816 23.5996 -6.89551 51.4561 -6.89551 81.3271c0 37.8721 4.06348 72.5605 10.7998 99.3604c1.34375 6.1123 2.95996 11.5518 4.7998 16.4004
c0.576172 1.66406 1.15234 3.29588 1.74414 4.86327l25.6162 182.129s1.04004 7.58398 7.56738 9.2793c58.7842 16.624 200.544 18.2725 205.456 18.2559c4.91211 -0.015625 146.672 -1.64746 205.473 -18.2559c6.54395 -1.69531 7.56735 -9.2793 7.56735 -9.2793
l25.6319 -182.129c0.592773 -1.56738 1.16797 -3.1992 1.72852 -4.86327c1.83984 -4.84863 3.45602 -10.2881 4.79977 -16.4004c6.73633 -26.7842 10.8164 -61.4717 10.8164 -99.3604c0 -29.8711 -2.54395 -57.7432 -6.91211 -81.3271
c-0.560547 -6.43262 -1.15237 -12.1924 -1.69632 -17.2168v-56.2715c0 -14.7842 -11.5195 -26.752 -25.7598 -26.752h-21.1679c-14.2246 0 -25.7598 11.9678 -25.7598 26.752v26.9443c-46.4961 -3.56836 -102.385 -4.68848 -159.36 -4.92871l-15.3438 -0.015624h-0.0322266z
" />
    <glyph glyph-name="character" unicode="&#xf120;" 
d="M358.192 22.1279c-43.5684 10.7041 -85.9365 62.9922 -104.641 129.632c22.2881 42.8643 33.1367 91.5205 31.9844 139.424c22.752 -7.8877 45.4717 -12.4961 76.7363 -13.1836c47.9834 -1.00781 82 7.69629 131.023 24.7998
c63.9521 -167.504 -50.0801 -301.488 -135.104 -280.672zM382.176 207.44l-0.015625 -0.0166016c-4.57617 -18.7842 7.37598 -38.9756 27.1836 -45.4883c20.4326 -6.73535 41.7764 3.52051 47.0879 23.2803c5.37598 20.0479 -10.544 -8.30371 -40.9278 1.04004
c-28.9443 8.94434 -28.752 40.1924 -33.3281 21.1846zM360.176 144.336h-0.015625c-37.792 5.23242 -67.3604 -18.1602 -71.9199 -52.5283c13.7441 21.9199 40 34.3525 71.584 29.376c33.2959 -5.31152 63.5996 -28.5918 80.1279 -59.168
c-4.57617 40.8164 -39.2959 76.7363 -79.7764 82.3203zM311.008 196.4l0.0166016 -0.0166016c-24.3203 -3.2002 -35.3125 23.4404 -31.9209 5.60059c3.39258 -17.8086 19.5049 -30.8643 36.4482 -29.0244c17.4883 1.93652 29.1045 18.9443 25.3604 37.8398
c-3.67969 18.8486 -4.40039 -11.0234 -29.9043 -14.3994zM0.272461 255.536v0.063446c-0.0800781 2.00002 -0.160156 4.04884 -0.192383 6.08009c-0.0800781 2.5127 -0.0800781 5.04004 -0.0800781 7.55273c0 2.08008 0 4.15918 0.0800781 6.23926
c0.0800781 2.57617 0.192383 5.13672 0.335938 7.77637c0.160156 2.08008 0.303711 4.16016 0.496094 6.28809c0.160156 2.65625 0.463867 5.34375 0.767578 8.04785c0.224609 2.0957 0.463867 4.19238 0.800781 6.33594c0.383789 2.76758 0.847656 5.58398 1.26367 8.40039
c0.416016 2.08008 0.736328 4.17578 1.15137 6.23926c0.52832 2.97656 1.2168 5.96875 1.9043 8.97656c0.416016 2 0.848633 3.95215 1.37598 5.96777c0.799805 3.32812 1.71191 6.71973 2.7041 10.0957c0.496094 1.68066 0.912109 3.37598 1.45605 5.05664
c1.53613 5.12012 3.24805 10.2559 5.12012 15.4238c5.50391 -1.95215 10.7998 -3.75977 15.9199 -5.47168c0.463867 -0.176758 0.959961 -0.335938 1.37598 -0.464844c4.92773 -1.66309 9.71191 -3.15137 14.4004 -4.5752
c0.607422 -0.192383 1.26367 -0.384766 1.90332 -0.592773c4.5127 -1.37598 8.97656 -2.63965 13.3281 -3.82324c0.671875 -0.208008 1.4082 -0.384766 2.12793 -0.560547c4.32031 -1.15137 8.5127 -2.19141 12.832 -3.10352
c0.720703 -0.175781 1.45605 -0.335938 2.17578 -0.480469c4.24023 -0.943359 8.43262 -1.71191 12.7041 -2.43164c0.736328 -0.12793 1.37598 -0.240234 2.14453 -0.335938c4.28809 -0.704102 8.55957 -1.3125 12.9434 -1.79199
c0.576172 -0.0800781 1.23242 -0.12793 1.87207 -0.192383c4.46484 -0.479492 9.00879 -0.832031 13.6328 -1.08789c0.479492 -0.0322266 0.975594 -0.0478516 1.51954 -0.0644531c4.7998 -0.255859 9.69628 -0.383789 14.7363 -0.399414
c2.73535 0 5.4873 0.0478516 8.35156 0.0957031c44.0166 1.04004 70.8965 10.0645 104.977 25.2803c41.3916 -125.36 -27.1045 -262.992 -99.3281 -282.096c-2.86426 -0.736328 -5.80859 -1.26465 -8.7041 -1.69629
c-0.912109 -0.12793 -1.9043 -0.160156 -2.78418 -0.240234c-2.03223 -0.191406 -4.16016 -0.368164 -6.14355 -0.368164c-0.368164 -0.03125 -0.768555 -0.111328 -1.2168 -0.111328c-1.00781 0 -1.95117 0.0957031 -2.94336 0.12793
c-1.15234 0.0478516 -2.33594 0.111328 -3.52051 0.160156c-1.4873 0.143555 -3.05567 0.351562 -4.54395 0.55957c-1.13574 0.175781 -2.28808 0.288086 -3.47167 0.496094c-1.53613 0.271484 -3.16797 0.624023 -4.73633 1.05566
c-1.05566 0.208008 -2.12793 0.432617 -3.2002 0.751953c-1.79199 0.463867 -3.63184 1.07227 -5.37598 1.64844c-0.927734 0.288086 -1.75977 0.52832 -2.63965 0.879883c-2.62402 0.927734 -5.2959 2.03223 -7.93555 3.18359
c-0.640625 0.304688 -1.18457 0.624023 -1.68066 0.912109c-2.08008 0.944336 -4.14355 1.98438 -6.20801 3.08789c-0.912109 0.543945 -1.95215 1.2002 -2.94336 1.74414c-1.55273 0.944336 -3.24805 1.85645 -4.76855 2.91211
c-1.10352 0.719727 -2.17578 1.48828 -3.24805 2.24023c-1.48828 1.00781 -2.97559 1.96777 -4.43164 3.05566c-1.10449 0.864258 -2.20801 1.75977 -3.3125 2.65625c-1.42383 1.07227 -2.83203 2.16016 -4.12793 3.31152c-1.12012 0.992188 -2.22363 2 -3.32812 2.99219
c-1.34375 1.16797 -2.63964 2.3838 -3.93554 3.63184c-1.10449 1.05664 -2.17579 2.16015 -3.24805 3.28027c-1.24805 1.2959 -2.51172 2.6084 -3.77637 3.95215c-1.07129 1.15234 -2.01562 2.35155 -3.08789 3.56835c-1.21582 1.37598 -2.43164 2.79981 -3.58398 4.27149
c-1.04004 1.2002 -2.03223 2.49609 -3.02344 3.77637c-1.16797 1.50391 -2.36816 3.05566 -3.47266 4.63965c-0.912109 1.28027 -1.90332 2.63965 -2.7832 4c-1.10449 1.58398 -2.17676 3.26367 -3.28027 4.97656c-0.879883 1.35938 -1.75977 2.75195 -2.64062 4.19141
c-1.04004 1.74414 -2.06348 3.58398 -3.13574 5.4082c-0.767578 1.44043 -1.56738 2.83203 -2.33594 4.27148c-1.07227 1.98438 -2.01562 4.04883 -3.08789 6.09668c-0.608398 1.35938 -1.2959 2.71973 -1.98438 4.11133
c-1.15137 2.49609 -2.20801 5.04004 -3.24805 7.61621c-0.447266 1.02441 -0.911133 2.03223 -1.32715 3.05664c-1.45605 3.64746 -2.75293 7.32715 -4.04883 11.1191c-0.383789 1.2002 -0.799805 2.52832 -1.18359 3.72852
c-0.719727 2.62402 -1.55176 5.21582 -2.32031 7.85645c-0.447266 1.59961 -0.767578 3.23145 -1.21582 4.83105c-0.576172 2.38477 -1.23145 4.78418 -1.72754 7.23242c-0.384766 1.74414 -0.688477 3.53613 -1.07227 5.32812
c-0.463867 2.33594 -0.879883 4.71973 -1.2959 7.15234c-0.272461 1.83984 -0.511719 3.72755 -0.768555 5.59962c-0.351562 2.38379 -0.655273 4.81638 -0.879883 7.26364c-0.271484 1.9043 -0.383789 3.87209 -0.543945 5.87209
c-0.223633 2.41602 -0.383789 4.8799 -0.527344 7.36037zM195.6 277.968h0.0166016c-17.2959 -5.55176 -28.1758 -25.04 -24.0166 -43.168c4.19238 -17.9033 4.03223 11.8398 29.0088 20.4004c23.8555 8.16016 34.9277 -16.208 31.456 0.799805
c-3.63281 17.3125 -19.7129 27.2803 -36.4648 21.9678zM153.312 160.064c-32.7676 -6.27246 -63.7598 6.33594 -81.9678 31.376c7.10449 -39.3604 43.0244 -62.624 82.4639 -54.2402c36.8008 7.80762 64.96 40.8955 68.9766 76.96
c-13.1357 -26.8164 -38.5439 -48.2246 -69.4727 -54.0957zM56.4639 236.832c-3.93555 -21.0879 9.8877 10.5117 40.5762 7.31151c29.0879 -3.05566 30.3359 -34.0791 34.0479 -14.3838c3.63184 19.7119 -9.12012 37.7285 -29.2002 40.3359
c-20.8477 2.67188 -41.4873 -12.1602 -45.4238 -33.2637z" />
    <glyph glyph-name="chat-outline" unicode="&#xf121;" 
d="M256 32v0.015625v0c123.712 0 224 85.9365 224.032 191.969c0 106.031 -100.304 192 -224 192c-123.729 0 -224 -85.9688 -224 -192c0 -65.0566 37.8242 -122.48 95.584 -157.217l-1.0244 -74.1914l75.3437 45.2803c17.3281 -3.68066 35.376 -5.85645 54.0645 -5.85645z
M256 448v0c141.36 0 256 -100.304 256 -224c0 -123.696 -114.64 -224 -256 -224c-16.3516 0 -32.3203 1.51953 -47.8398 4.04785l-112.16 -68.0479v113.312c-58.4639 41.0234 -96 103.983 -96 174.688c0 123.696 114.64 224 256 224z" />
    <glyph glyph-name="chat" unicode="&#xf122;" 
d="M500.672 -16.5762l-0.015625 -0.015625c43.3594 -40.2725 -50.1123 8.78418 -76.7207 35.5674c-12.8955 0.352539 -17.8232 0.352539 -31.7275 0.352539c-44.96 0 -83.5361 21.4395 -104.128 54.6074c73.6641 22.1602 127.855 75.6963 127.855 149.937
c0 0.368164 -0.015625 0.751953 -0.015625 1.13574c55.8398 -9.37598 96.0479 -55.1836 96.0479 -108.544c0 -31.9355 -14.0635 -59.248 -38.1914 -79.168c7.15137 -19.4082 11.9512 -40 26.8955 -53.8721zM383.856 253.872v0.0156555
c0 -0.368164 0.015625 -0.735382 0.015625 -1.10355c0 -72.1758 -55.1201 -127.376 -131.488 -148.912c-19.0078 -5.36035 -38.4483 -7.85645 -59.5674 -7.85645c-22.208 0 -44.416 2.80078 -64.2568 8.7041c-42.5117 -40.1113 -178.479 -109.6 -109.216 -49.2959
c23.8564 20.7686 31.9844 47.6006 43.3926 76.6719c-38.5439 29.8398 -62.7363 72.8486 -62.7363 120.672c0 90.1289 85.9355 163.2 191.936 163.2c105.568 0 191.217 -72.4795 191.921 -162.096z" />
    <glyph glyph-name="check-down" unicode="&#xf123;" 
d="M256 448c141.392 0 256 -114.608 256 -256s-114.608 -256 -256 -256s-256 114.608 -256 256s114.608 256 256 256zM148.8 284.624h-0.0322266l-32.4316 -35.1357l139.008 -150.592l139.008 150.592l-32.4316 35.1357l-106.56 -115.456z" />
    <glyph glyph-name="check-up" unicode="&#xf124;" 
d="M256 -64c-141.392 0 -256 114.608 -256 256s114.608 256 256 256s256 -114.608 256 -256s-114.608 -256 -256 -256zM363.2 99.376h0.0322266l32.4316 35.1357l-139.008 150.592l-139.008 -150.592l32.4316 -35.1357l106.56 115.456z" />
    <glyph glyph-name="check" unicode="&#xf125;" 
d="M189.056 102.32l0.0166016 -0.0166016c17.5996 23.6963 34.96 47.04 52.3037 70.4004c63.8565 85.9678 127.696 171.936 191.552 257.904c14.3359 19.2959 39.8086 22.96 59.0879 8.84766c9.79199 -7.16797 17.0088 -16.0645 19.1845 -28.416
c2.03226 -11.5205 0.559601 -22.5283 -5.82419 -32.6396c-88.1924 -139.633 -176.512 -279.185 -264.368 -419.04c-14.1602 -22.5439 -37.1035 -26.5439 -56.0479 -21.4883c-9.63184 2.57617 -16.96 9.07227 -23.376 16.6084
c-37.5996 44.1436 -75.1357 88.3193 -112.704 132.479c-12.5762 14.7842 -25.0723 29.6318 -37.8076 44.2725c-14.7686 16.96 -14.7998 42.8154 0.191406 59.376c15.2646 16.8633 40.2559 19.0557 57.8398 5.15137c16.9443 -13.3916 33.9209 -26.7354 50.9443 -40.0156
c21.9199 -17.0723 43.9043 -34.0645 65.8564 -51.0879c0.943359 -0.720703 1.91992 -1.42383 3.15137 -2.33594z" />
    <glyph glyph-name="checkSolid" unicode="&#xf126;" 
d="M256 448c141.392 0 256 -114.624 256 -256c0 -141.392 -114.608 -256 -256 -256s-256 114.608 -256 256s114.608 256 256 256zM418.416 285.968l-0.015625 0.0166016c4.15918 5.63184 5.11914 11.7754 3.79199 18.208c-1.4082 6.87988 -6.1123 11.8398 -12.4961 15.8398
c-12.5605 7.85547 -29.1367 5.80762 -38.4805 -4.94434c-41.584 -47.9355 -83.1836 -95.8877 -124.768 -143.824c-11.2959 -13.0234 -22.5918 -26.0312 -34.0644 -39.248c-0.81543 0.512695 -1.43945 0.896484 -2.06348 1.3125
c-14.3047 9.48828 -28.624 18.96 -42.8965 28.4961c-11.0879 7.4082 -22.1436 14.8477 -33.1836 22.3193c-11.4561 7.74414 -27.7285 6.52832 -37.6807 -2.87988c-9.77539 -9.24805 -9.74316 -23.6475 -0.12793 -33.1201c8.28809 -8.15918 16.4326 -16.4473 24.624 -24.6875
c24.4639 -24.6396 48.9287 -49.2803 73.4082 -73.8877c4.19238 -4.20801 8.95996 -7.82422 15.2324 -9.26465c12.3359 -2.81543 27.2793 -0.591797 36.5117 11.9844c57.2324 77.9844 114.752 155.808 172.208 233.68z" />
    <glyph glyph-name="checkboxOff" unicode="&#xf127;" 
d="M437.008 416h-361.872c-23.792 0 -43.1357 -19.3604 -43.1357 -43.1357v-361.872c0 -23.792 19.3604 -43.1357 43.1357 -43.1357h361.872c23.792 0 43.1357 19.3594 43.1357 43.1357v361.872c0 23.792 -19.3593 43.1357 -43.1357 43.1357zM437.008 448v0
c41.4561 0 75.1357 -33.6641 75.1357 -75.1357v-361.872c0 -41.4561 -33.6797 -75.1357 -75.1357 -75.1357h-361.872c-41.4561 0 -75.1357 33.6797 -75.1357 75.1357v361.872c0 41.4395 33.6641 75.1357 75.1357 75.1357h361.872z" />
    <glyph glyph-name="checkboxOn" unicode="&#xf128;" 
d="M227.616 49.6641l-142.256 142.256l56.8955 56.8965l85.3603 -85.3604l252.512 252.512l32.0157 -81.792zM437.008 416h-361.872c-23.792 0 -43.1357 -19.3604 -43.1357 -43.1357v-361.872c0 -23.792 19.3604 -43.1357 43.1357 -43.1357h361.872
c23.792 0 43.1357 19.3594 43.1357 43.1357v361.872c0 23.792 -19.3593 43.1357 -43.1357 43.1357zM437.008 448v0c41.4561 0 75.1357 -33.6641 75.1357 -75.1357v-361.872c0 -41.4561 -33.6797 -75.1357 -75.1357 -75.1357h-361.872
c-41.4561 0 -75.1357 33.6797 -75.1357 75.1357v361.872c0 41.4395 33.6641 75.1357 75.1357 75.1357h361.872z" />
    <glyph glyph-name="circle-facebook" unicode="&#xf129;" 
d="M256 -64c-141.392 0 -256 114.608 -256 256s114.608 256 256 256s256 -114.608 256 -256s-114.608 -256 -256 -256zM274.032 178.448l43.04 0.015625l7.18359 42.3682l-50.2236 0.0800781v28.9922c0 12.544 4.78418 21.1035 23.3594 21.1035l26.8643 1.45605v35.3125
c-4.0957 0.527344 -21.1201 3.71191 -37.4883 3.71191c-34.1279 0 -55.9355 -20.1924 -55.9355 -57.2803v-33.2803l-43.1201 -0.0800781v-42.3672l43.1201 -0.0166016v-105.92h43.1836v105.92z" />
    <glyph glyph-name="circle-googleplus" unicode="&#xf12a;" 
d="M250.352 242.256l0.0166168 0.0165863c0 -5.60059 -0.624008 -15.5361 -7.98436 -22.7207c-5.13574 -4.97559 -13.7276 -8.7041 -21.6953 -8.7041c-27.4404 0 -39.8887 34.5127 -39.8887 55.3447c0 8.12793 1.58398 16.4795 7.00781 23.0234
c5.12012 6.24023 14.0488 10.2725 22.3525 10.2725c26.4639 0 40.1914 -34.8486 40.1914 -57.2324zM256 448c141.376 0 256 -114.624 256 -256s-114.624 -256 -256 -256s-256 114.624 -256 256s114.624 256 256 256zM205.344 72.7676v0.0166016
c54.8965 0 83.9365 29.5195 83.9043 58.7363c0.015625 21.4873 -12.752 32.0479 -26.7998 43.5674l-11.4883 8.68848c-3.50391 2.81543 -8.28807 6.54395 -8.28807 13.3594c0 6.87988 4.79979 11.2324 8.94432 15.2646c13.4082 10.2715 26.7842 21.168 26.7842 44.1758
c0 23.6475 -15.2803 36.0801 -22.624 41.9834h19.7598l20.752 12.6885h-62.8799c-17.2646 0 -42.1279 -3.98438 -60.3203 -18.5918c-13.7119 -11.5039 -20.3994 -27.376 -20.3994 -41.6641c0 -24.2559 19.1514 -48.832 52.96 -48.832
c3.19922 0 6.6875 0.288086 10.208 0.607422c-1.56836 -3.72754 -3.16797 -6.83203 -3.16797 -12.1279c0 -9.63184 5.07129 -15.5352 9.56738 -21.1357c-14.3682 -0.959961 -41.1836 -2.51172 -60.9443 -14.3203c-18.8477 -10.8955 -24.5596 -26.752 -24.5596 -37.9355
c0 -23.0244 22.3203 -44.4805 68.5918 -44.4805zM375.12 195.808v15.5361h-32.0645v31.0879h-15.792v-31.0879h-31.9199v-15.5361h31.9199v-31.2793h15.792v31.2793h32.0645zM233.12 160.464l-0.0165863 -0.015625c24.2724 -16.7842 34.8008 -25.1524 34.8008 -41.0566
c0 -19.248 -16.2725 -33.5996 -46.9121 -33.5996c-34.1279 0 -56.1445 15.8877 -56.1445 37.9678s20.4004 29.5361 27.4248 32.0166c13.3916 4.39941 30.6396 5.00781 33.5039 5.00781c3.19922 0 4.7998 0 7.34375 -0.320312z" />
    <glyph glyph-name="circle" unicode="&#xf12b;" 
d="M256 416c-30.2559 0 -59.584 -5.91992 -87.1836 -17.584c-26.6729 -11.2803 -50.6406 -27.4238 -71.2168 -48.0156c-20.5752 -20.5928 -36.7354 -44.5439 -48.0156 -71.2168c-11.6641 -27.5996 -17.584 -56.9277 -17.584 -87.1836s5.91992 -59.584 17.584 -87.1836
c11.2803 -26.6729 27.4238 -50.6406 48.0156 -71.2168c20.5928 -20.5752 44.5439 -36.7354 71.2168 -48.0156c27.5996 -11.6641 56.9277 -17.584 87.1836 -17.584s59.584 5.91992 87.1836 17.584c26.6729 11.2803 50.6406 27.4238 71.2168 48.0156
c20.5752 20.5928 36.7353 44.5439 48.0156 71.2168c11.6641 27.5996 17.584 56.9277 17.584 87.1836s-5.91998 59.584 -17.584 87.1836c-11.2803 26.6729 -27.4238 50.6406 -48.0156 71.2168c-20.5928 20.5752 -44.5439 36.7354 -71.2168 48.0156
c-27.5996 11.6641 -56.9277 17.584 -87.1836 17.584zM256 448v0c141.392 0 256 -114.608 256 -256c0 -141.376 -114.624 -256 -256 -256s-256 114.624 -256 256c0 141.392 114.624 256 256 256z" />
    <glyph glyph-name="circleSolid" unicode="&#xf12c;" 
d="M256 448c141.392 0 256 -114.608 256 -256c0 -141.376 -114.624 -256 -256 -256s-256 114.624 -256 256c0 141.392 114.624 256 256 256z" />
    <glyph glyph-name="city" unicode="&#xf12d;" 
d="M511.92 79.04l-0.032196 0.015625v0v-45.168c-8.87988 -3.77539 -17.7754 -7.53613 -28.4316 -7.53613c-21.3438 0 -35.5518 15.0566 -56.8799 15.0566s-35.5361 -15.0566 -56.8799 -15.0566c-21.3281 0 -35.5205 15.0566 -56.8643 15.0566
s-35.5518 -15.0566 -56.8799 -15.0566c-21.3281 0 -35.5517 15.0566 -56.8799 15.0566s-35.5527 -15.0566 -56.8799 -15.0566c-21.3281 0 -35.5527 15.0566 -56.8809 15.0566c-21.3271 0 -35.5518 -15.0566 -56.8799 -15.0566c-10.6719 0 -19.5674 3.76074 -28.4473 7.52051
v45.168c8.89551 -3.75977 17.7754 -7.50391 28.4473 -7.50391c21.3281 0 35.5527 15.04 56.8799 15.04c21.3281 0 35.5527 -15.0566 56.8809 -15.0566c21.3271 0 35.5518 15.0566 56.8799 15.0566s35.5517 -15.0566 56.8799 -15.0566
c21.3281 0 35.5518 15.0566 56.8799 15.0566s35.5518 -15.0566 56.8799 -15.0566s35.5518 15.0566 56.8799 15.0566s35.5518 -15.0566 56.8799 -15.0566c10.6719 0 19.5527 3.76074 28.4482 7.52051zM511.904 -11.3125l-0.032196 -0.015625v0v-45.168
c-8.87988 -3.75977 -17.7763 -7.51953 -28.4316 -7.51953c-21.3447 0 -35.5528 15.0557 -56.8809 15.0557c-21.3271 0 -35.5352 -15.0557 -56.8799 -15.0557c-21.3281 0 -35.5361 15.0557 -56.8633 15.0557c-21.3281 0 -35.5527 -15.0557 -56.8809 -15.0557
c-21.3438 0 -35.5518 15.04 -56.8799 15.04s-35.5518 -15.0566 -56.8799 -15.0566s-35.5518 15.0566 -56.8799 15.0566s-35.5518 -15.0566 -56.8799 -15.0566c-10.6719 0 -19.5684 3.75977 -28.4482 7.52051v45.1836c8.89648 -3.77637 17.7764 -7.51953 28.4482 -7.51953
c21.3281 0 35.5518 15.0557 56.8799 15.0557s35.5518 -15.0557 56.8799 -15.0557s35.5518 15.0557 56.8799 15.0557s35.5527 -15.0557 56.8799 -15.0557c21.3281 0 35.5527 15.0557 56.8809 15.0557c21.3271 0 35.5518 -15.0557 56.8799 -15.0557
s35.5518 15.0557 56.8799 15.0557s35.5518 -15.0557 56.8799 -15.0557c10.6719 0 19.5517 3.77539 28.4482 7.53516zM469.248 161.904v0.015625h42.6562v-37.6797c-8.87988 -3.75977 -17.7763 -7.53614 -28.4326 -7.53614c-21.3438 0 -35.5518 15.0557 -56.8799 15.0557
s-35.5361 -15.0557 -56.8799 -15.0557c-21.3281 0 -35.5195 15.0557 -56.8643 15.0557c-21.3438 0 -35.5518 -15.0557 -56.8799 -15.0557c-21.3281 0 -35.5517 15.0557 -56.8799 15.0557s-35.5518 -15.0557 -56.8799 -15.0557s-35.5518 15.0557 -56.8799 15.0557
s-35.5518 -15.0557 -56.8799 -15.0557c-10.6719 0 -19.5684 3.75977 -28.4482 7.51953v105.456h35.5518v105.408l46.208 30.1123l46.208 -30.1123v-59.0879h56.8799v172.016h113.761v-105.104h42.8633v-120.784h35.3604v90.3525l92.416 60.2393v-210.815zM426.592 86.5762
l-0.015625 0.015625c21.3281 0 35.5518 -15.0557 56.8799 -15.0557c10.6562 0 19.5517 3.75977 28.4316 7.51953v-45.1836c-8.87988 -3.77637 -17.7754 -7.53613 -28.4316 -7.53613c-21.3438 0 -35.5518 15.0557 -56.8799 15.0557s-35.5361 -15.0557 -56.8799 -15.0557
c-21.3281 0 -35.5205 15.0557 -56.8643 15.0557s-35.5518 -15.0557 -56.8799 -15.0557c-21.3281 0 -35.5517 15.0557 -56.8799 15.0557s-35.5527 -15.0557 -56.8799 -15.0557c-21.3281 0 -35.5527 15.0557 -56.8809 15.0557c-21.3271 0 -35.5518 -15.0557 -56.8799 -15.0557
c-10.6719 0 -19.5674 3.75977 -28.4473 7.52051v45.168c8.89551 -3.76074 17.7754 -7.50488 28.4473 -7.50488c21.3281 0 35.5527 15.0566 56.8799 15.0566c21.3281 0 35.5527 -15.0566 56.8809 -15.0566c21.3271 0 35.5518 15.0566 56.8799 15.0566
s35.5517 -15.0566 56.8799 -15.0566c21.3281 0 35.5518 15.0566 56.8799 15.0566s35.5518 -15.0566 56.8799 -15.0566s35.5518 15.0566 56.8799 15.0566z" />
    <glyph glyph-name="clock" unicode="&#xf12e;" 
d="M256 448c141.392 0 256 -114.608 256 -256s-114.608 -256 -256 -256s-256 114.608 -256 256c0 141.36 114.624 256 256 256zM256 -8.35156c110.672 0 200.352 89.7119 200.352 200.352s-89.6953 200.352 -200.352 200.352
c-110.672 0 -200.352 -89.7119 -200.352 -200.352s89.6953 -200.352 200.352 -200.352zM262.96 352v-143.856l84.5918 -84.5918l-27.5518 -27.5518l-96 96v160h38.96z" />
    <glyph glyph-name="clockSolid" unicode="&#xf12f;" 
d="M256 448c141.392 0 256 -114.608 256 -256c0 -141.376 -114.624 -256 -256 -256s-256 114.624 -256 256c0 141.392 114.624 256 256 256zM416 128v32l-128 64l-32 160h-32v-224z" />
    <glyph glyph-name="clothing" unicode="&#xf130;" 
d="M397.2 416l114.848 -87.7119l-57.6797 -82.6562l-57.1679 43.6318v-321.264h-282.304v321.264l-57.1523 -43.6318l-57.7441 82.6562l114.896 87.7119h44.4951l60.5439 -66.0322c9.4082 -10.2559 22.5928 -16.1436 36.1768 -16.1436
c13.4395 0 26.4473 5.77539 35.6641 15.8555l60.9121 66.3203h44.5117zM320.112 416l-46.0166 -50.0957c-4.92773 -5.39258 -11.4238 -8.08008 -17.9678 -8.08008c-6.65625 0 -13.376 2.78418 -18.4795 8.36816l-45.6807 49.8076h128.145z" />
    <glyph glyph-name="color" unicode="&#xf131;" 
d="M72.2559 434.192c0.400391 0 0.78418 -0.0166016 1.16797 -0.0322266c13.4404 -0.608398 23.8398 -12.0322 23.2158 -25.4561l10.6562 -231.008c-1.10352 -24.0166 -20.9277 -42.7207 -44.7041 -42.7207c-0.719727 0 -1.4082 0 -2.12793 0.0488281
c-12.3682 0.591797 -23.3281 6.11133 -31.04 14.5596c-7.72754 8.48047 -12.2236 19.9043 -11.6318 32.2559l30.1602 229.104c0.607422 13.0713 11.376 23.248 24.3037 23.248zM59.4561 113.536v-0.0166016c1.04004 -0.03125 2.08008 -0.0634842 3.12012 -0.0791092
c13.3594 0 25.792 3.93555 36.208 10.752c18.6875 -14.2725 31.1836 -38.0801 24.3516 -62.6728c-18.624 -67.1836 -9.31153 -111.728 -9.31153 -111.728c-33.2803 11.3115 -103.152 51.5205 -112.96 112.08c-4.03223 24.752 6.31934 48.5283 24.9434 62.752
c9.91992 -6.62402 21.4248 -10.5117 33.6484 -11.0879zM320.256 385.584l0.0322266 0.0322266c163.855 1.91992 261.231 -185.84 132.192 -305.376c-98.0645 -90.7842 -289.376 -178.992 -265.809 22.624c5.36035 45.8232 -31.9043 55.9199 -56.3994 32.8955
c-3.56836 3.71191 -7.44044 7.21582 -11.6484 10.4326l-2.92773 2.23926c4.86328 8.12793 7.8877 17.5684 8.35156 27.7119l0.0166016 0.65625l-0.368156 7.71191c17.0234 7.69629 26.9922 24.3203 22.9121 40.0322c-3.04004 11.7285 -13.168 20.0479 -25.8242 22.9121
l-3.20021 69.3438c54.8965 42.2725 128.24 67.9043 202.672 68.7842zM189.456 248.112h-0.015625c23.1191 -10.7998 49.6953 -2.73631 59.2959 17.9033c9.55176 20.6562 -1.4248 46.1279 -24.6084 56.8809c-23.1523 10.7676 -49.7119 2.73535 -59.2803 -17.9043
c-9.64746 -20.6406 1.39258 -46.1279 24.6084 -56.8799zM315.104 52v0.015625c25.6328 11.1201 39.2803 36.752 30.3682 57.2803s-36.8955 28.1602 -62.5596 17.0879c-25.6641 -11.1357 -39.2158 -36.7998 -30.3682 -57.3281
c8.87988 -20.5273 36.8799 -28.1592 62.5596 -17.0557zM321.664 295.712c17.2158 0 31.168 13.9678 31.168 31.168s-13.9521 31.168 -31.168 31.168s-31.1523 -13.9678 -31.1523 -31.168s13.9365 -31.168 31.1523 -31.168zM440.72 239.344v-0.0156097
c17.3281 6.89551 24.752 29.2803 16.4805 50.1123c-8.19238 20.7676 -28.8643 32.1279 -46.1924 25.2793c-17.2803 -6.83203 -24.7197 -29.2314 -16.4639 -50.0635c8.17578 -20.7998 28.8965 -32.1445 46.1758 -25.3125z" />
    <glyph glyph-name="comment" unicode="&#xf132;" 
d="M512.08 233.792l-0.015625 0.0156097c0 -0.496094 0.015625 -0.975571 0.015625 -1.47166c0 -95.3916 -73.2324 -170.08 -174.72 -198.544c-25.248 -7.08789 -51.0879 -9.48828 -79.1523 -9.48828c-29.5195 0 -59.0078 4.57617 -85.376 12.3682
c-56.4961 -53.0078 -239.296 -150.128 -147.248 -70.4316c31.7119 27.4395 44.6396 68.1914 59.792 106.607c-51.2158 39.4404 -85.3916 93.7285 -85.3916 156.929c0 119.12 116.224 218.224 257.071 218.224c140.272 0 254.08 -95.7764 255.024 -214.208zM368.496 208v64
h-80.4482l-0.0478516 80h-64v-80h-80.4961v-64.2559l80.5439 -0.0478516l-0.0478516 -79.6963h64l0.0478516 79.8076z" />
    <glyph glyph-name="conditions" unicode="&#xf133;" 
d="M64 448h384v-512l-56.4639 69.8242l-56.4482 -69.8242h-20.8477l-56.4805 69.8242l-56.4482 -69.8242h-17.3271l-59.9844 69.8242l-59.9844 -69.8242h-0.015625v512zM93.1035 52.3682c6.43262 0 11.6328 5.21582 11.6328 11.6318
c0 6.44824 -5.2002 11.6318 -11.6328 11.6318c-6.43164 0 -11.6318 -5.18359 -11.6318 -11.6318c0 -6.40039 5.2002 -11.6318 11.6318 -11.6318zM139.648 52.3682c6.43164 0 11.6318 5.21582 11.6318 11.6318c0 6.44824 -5.2002 11.6318 -11.6318 11.6318
c-6.43262 0 -11.6328 -5.18359 -11.6328 -11.6318c0 -6.40039 5.2002 -11.6318 11.6328 -11.6318zM186.192 52.3682c6.43164 0 11.6318 5.21582 11.6318 11.6318c0 6.44824 -5.2002 11.6318 -11.6318 11.6318c-6.43262 0 -11.6328 -5.18359 -11.6328 -11.6318
c0 -6.40039 5.2002 -11.6318 11.6328 -11.6318zM232.736 52.3682c6.43164 0 11.6318 5.21582 11.6318 11.6318c0 6.44824 -5.20016 11.6318 -11.6318 11.6318c-6.43262 0 -11.6328 -5.18359 -11.6328 -11.6318c0 -6.40039 5.20021 -11.6318 11.6328 -11.6318z
M279.264 52.3682c6.44824 0 11.6328 5.21582 11.6328 11.6318c0 6.44824 -5.18457 11.6318 -11.6328 11.6318c-6.39941 0 -11.6318 -5.18359 -11.6318 -11.6318c0 -6.40039 5.21582 -11.6318 11.6318 -11.6318zM325.808 52.3682c6.44824 0 11.6328 5.21582 11.6328 11.6318
c0 6.44824 -5.18457 11.6318 -11.6328 11.6318c-6.39941 0 -11.6318 -5.18359 -11.6318 -11.6318c0 -6.40039 5.21582 -11.6318 11.6318 -11.6318zM337.44 122.176c6.44727 0 11.6318 5.21582 11.6318 11.6318c0 6.44824 -5.18457 11.6328 -11.6318 11.6328h-197.809
c-6.43164 0 -11.6318 -5.18457 -11.6318 -11.6328c0 -6.39941 5.2002 -11.6318 11.6318 -11.6318h197.809zM372.352 52.3682c6.44824 0 11.6328 5.21582 11.6328 11.6318c0 6.44824 -5.18457 11.6318 -11.6328 11.6318c-6.39941 0 -11.6318 -5.18359 -11.6318 -11.6318
c0 -6.40039 5.21582 -11.6318 11.6318 -11.6318zM372.352 168.72c6.44824 0 11.6328 5.21582 11.6328 11.6484c0 6.43164 -5.18457 11.6318 -11.6328 11.6318h-232.703c-6.43262 0 -11.6328 -5.21582 -11.6328 -11.6318s5.2002 -11.6484 11.6328 -11.6484h232.703z
M128.016 226.912c0 -6.43164 5.2002 -11.6319 11.6328 -11.6319h197.808c6.44824 0 11.6318 5.20021 11.6318 11.6319s-5.18359 11.6318 -11.6318 11.6318h-197.808c-6.43262 0 -11.6328 -5.20016 -11.6328 -11.6318zM372.352 261.824
c6.44824 0 11.6328 5.2002 11.6328 11.6318s-5.18457 11.6318 -11.6328 11.6318h-232.703c-6.43262 0 -11.6328 -5.2002 -11.6328 -11.6318s5.2002 -11.6318 11.6328 -11.6318h232.703zM128.016 320c0 -6.43164 5.2002 -11.6318 11.6328 -11.6318h197.808
c6.44824 0 11.6318 5.2002 11.6318 11.6318s-5.18359 11.6318 -11.6318 11.6318h-197.808c-6.43262 0 -11.6328 -5.2002 -11.6328 -11.6318zM372.352 354.912c6.44824 0 11.6328 5.2002 11.6328 11.6318s-5.18457 11.6318 -11.6328 11.6318h-232.703
c-6.43262 0 -11.6328 -5.2002 -11.6328 -11.6318s5.2002 -11.6318 11.6328 -11.6318h232.703zM418.896 52.3682c6.44727 0 11.6318 5.21582 11.6318 11.6318c0 6.44824 -5.18457 11.6318 -11.6318 11.6318c-6.40039 0 -11.6328 -5.18359 -11.6328 -11.6318
c0 -6.40039 5.2168 -11.6318 11.6328 -11.6318z" />
    <glyph glyph-name="conduct" unicode="&#xf134;" 
d="M256 448c141.392 0 255.984 -114.608 255.984 -256s-114.593 -256 -255.984 -256s-256 114.608 -256 256s114.608 256 256 256zM256.96 351.312c-36.9922 -0.000976562 -66.9756 -39.3926 -66.9756 -88.0166s29.9834 -88.0322 66.9756 -88.0322
c36.9756 0 66.96 39.4238 66.96 88.0322s-29.9844 88.0166 -66.96 88.0166zM124.272 64h263.743s-4.83203 56.2881 -24.2236 69.2158c-16.4805 10.9922 -64 18.3037 -64 18.3037s-30.7842 -32.9277 -43.8564 -32.9277c-13.1035 0 -43.8877 32.9277 -43.8877 32.9277
s-47.5039 -7.31152 -63.9834 -18.3037c-16.4961 -10.9756 -23.792 -69.2158 -23.792 -69.2158z" />
    <glyph glyph-name="country" unicode="&#xf135;" 
d="M479.904 205.984h-0.0166016c1.45605 -11.5039 -6.39938 -23.8564 -17.4394 -27.1201l-167.424 -49.7119c-11.0566 -3.26465 -21.2803 2.86328 -22.7363 14.3516l-2.71973 20.3359l-168.944 -52.5283l21.1836 -175.823h-21.1035l-56.2725 459.264
c-6.41602 2.81641 -11.2793 13.5518 -12.2236 21.0557c-1.44043 11.3604 6.55957 21.7119 17.8398 23.168s21.6162 -6.5918 23.04 -17.9355c0.959961 -7.53613 -2.30371 -14.5918 -7.87207 -18.9443l2.12793 -17.168l181.92 53.3281
c11.04 3.28027 21.2803 -3.45605 22.7363 -14.9443l2.71973 -21.5518l153.809 45.4238c11.0557 3.24805 21.2959 -3.4873 22.7354 -14.9756zM328.96 288.144l-0.0322266 0.0166016c6.16016 7.32812 9.93652 17.2959 9.93652 28.2715
c0 22.3682 -15.6318 40.4805 -34.9922 40.4805c-9.48828 0 -18.1279 -4.38379 -24.416 -11.4883c-6.52832 -7.35938 -10.5762 -17.6318 -10.5762 -28.9922c0 11.3447 -4.03223 21.5684 -10.5283 28.9121c-6.31934 7.16797 -14.9277 11.5684 -24.4795 11.5684
c-19.3125 0 -35.0078 -18.1123 -35.0078 -40.4805c0 -11.04 3.85547 -20.96 10.0322 -28.2715l60.0479 -69.4404l59.6152 68.9766l0.192383 0.223633z" />
    <glyph glyph-name="credit" unicode="&#xf136;" 
d="M432.032 371.968l0.015625 -0.015625c45.792 -45.6963 74.1279 -108.816 74.1279 -178.544c0 -139.456 -113.328 -252.513 -253.12 -252.513c-68.8955 0 -131.359 27.4883 -177.008 72.0488c95.5205 50.5752 191.04 101.168 286.561 151.76
c3.45605 1.83984 3.45605 1.83984 0.0478516 3.64746c-22.3838 11.8564 -62.6084 33.1846 -84.9922 45.04c-0.160156 0.0800781 -0.303711 0.176758 -0.463867 0.256836v0c-1.98438 1.05566 -2.28809 1.71191 -0.608398 3.18359zM229.504 170l-155.439 -155.12
c-45.792 45.6963 -74.1289 108.816 -74.1289 178.544c0 139.456 113.328 252.512 253.12 252.512c68.8965 0 131.36 -27.4873 177.009 -72.0479c-95.5205 -50.5762 -191.04 -101.168 -286.561 -151.76c-3.47168 -1.83984 -3.47168 -1.83984 -0.0634766 -3.64746
c22.3838 -11.8564 62.6074 -33.1846 84.9912 -45.04c0.144531 -0.0800781 0.304657 -0.176758 0.464813 -0.256836v0c1.9834 -1.05566 2.28714 -1.71191 0.607452 -3.18359z" />
    <glyph glyph-name="creditCard" unicode="&#xf137;" 
d="M426.672 362.672c23.4717 0 42.6718 -19.2002 42.6718 -42.6719v-256c0 -23.4717 -19.2002 -42.6719 -42.6718 -42.6719h-341.328c-23.4717 0 -42.6719 19.2002 -42.6719 42.6719v256c0 23.4717 19.2002 42.6719 42.6719 42.6719h341.328zM426.672 64v128h-341.328v-128
h341.328zM426.672 277.328v42.6719h-341.328v-42.6719h341.328z" />
    <glyph glyph-name="creditCard2" unicode="&#xf138;" 
d="M464 384.992c26.4004 0 48 -21.6641 48 -48.1279v-288.752c0 -26.4639 -21.5996 -48.1279 -48 -48.1279h-416c-26.4004 0 -48 21.6641 -48 48.1279v288.752c0 26.4639 21.5996 48.1279 48 48.1279h416zM48 351.952c-8.67188 0 -16 -7.36035 -16 -16.0479v-47.9043h448
v47.9043c0 8.7041 -7.32819 16.0479 -16.0001 16.0479h-416zM464 32.0801c8.67188 0 16.0001 7.36035 16.0001 16.0479v143.872h-448v-143.872c0 -8.7041 7.32812 -16.0479 16 -16.0479h416zM64 128h32v-64h-32v64zM128 128h32v-64h-32v64zM192 128h32v-64h-32v64z" />
    <glyph glyph-name="creditsBoost" unicode="&#xf139;" 
d="M327.664 299.472c9.82422 9.77637 25.6963 9.74414 35.4883 -0.0478516c9.93555 -9.95215 9.90332 -25.7275 -0.0800781 -35.6162c-9.83984 -9.74316 -25.792 -9.67969 -35.4883 0.12793c-9.72754 9.84082 -9.67969 25.8086 0.0800781 35.5361zM256 448
c141.392 0 256 -114.608 256 -256c0 -141.376 -114.624 -256 -256 -256s-256 114.624 -256 256c0 141.392 114.624 256 256 256zM194.4 94.9121c0.847656 1.8877 1.50391 3.75977 -0.496094 5.93555c-2.14453 2.35254 -4.16016 1.72852 -6.17676 0.944336
c-5.64746 -2.17578 -11.7275 -3.07227 -18.3359 -2.22363c-3.64746 0.463867 -5.04004 1.80762 -5.51953 5.3916c-0.927734 6.92773 0.143555 13.2002 2.43164 19.0879c0.720703 1.83984 0.832031 3.63184 -1.04004 5.45605s-3.71191 1.79199 -5.42383 0.832031
c-4.57617 -2.6084 -9.48828 -4.7998 -13.5996 -7.95214c-19.3447 -14.832 -27.5205 -36.3994 -27.6318 -62.6563c-0.0166016 -3.40723 2.11132 -5.47168 5.55175 -5.45508c22.5117 0.111328 41.8399 6.27148 56.7197 20.8955
c5.58398 5.67969 10.1602 12.2402 13.5205 19.7441zM378.256 231.216l-0.015625 0.0478668c18.8154 32.0645 25.4561 64.6719 17.9355 97.7607c-0.351562 1.58398 -1.00781 2.46387 -2.6875 2.84766c-24.5439 5.61621 -49.5361 3.51953 -75.0078 -6.63965
c-24.8643 -9.91992 -46.5283 -25.4561 -66.0166 -44.5127c-7.87207 -7.69531 -15.168 -15.8232 -21.9834 -24.3037c-11.8242 5.66406 -23.8564 8.22363 -36.5928 6.38379c-17.5195 -2.52734 -30.9277 -12.1436 -41.5195 -25.6475
c-13.4404 -17.1367 -23.9365 -36.0967 -32.4482 -56.1279c-3.69629 -8.7041 -6.62402 -17.6963 -7.10352 -27.2803c-0.224609 -4.22363 0.111328 -8.40039 2.30371 -12.1758c2.78418 -4.81641 8.6875 -6.12793 13.1523 -2.87988
c1.32715 0.943359 2.55957 2.0957 3.56738 3.35938c2.84766 3.60059 5.58398 7.3125 8.28809 11.0244c7.80762 10.7354 18.1123 16.1758 31.5684 14.9922c2.36816 -0.208008 4.73535 -0.496094 7.18359 -0.78418c-2.12793 -5.56836 -4.0957 -11.1846 -5.87207 -16.8643
c-0.65625 -2.08008 -0.320312 -3.32812 1.05664 -4.65625c6.0957 -5.91992 12.0479 -11.9834 18.0635 -17.9834c6.14453 -6.16016 12.3359 -12.2881 18.4316 -18.5127c1.02441 -1.05566 2.0166 -1.2959 3.53613 -0.751953c5.69629 2.03223 11.4404 3.87208 17.1045 5.98438
c0.271484 -3.39258 0.591827 -6.68848 0.607452 -9.96778c0.0322266 -7.13672 -1.29591 -14.0479 -6.22365 -19.5205c-3.32812 -3.69531 -7.18359 -6.95996 -10.9756 -10.208c-3.55273 -3.04004 -7.63281 -5.51953 -10.96 -8.75195
c-5.28027 -5.13574 -3.71289 -12.7842 3.18359 -15.3281c3.23242 -1.2002 6.89551 -1.58398 10.3682 -1.58398c7.05566 0 13.792 2 20.3994 4.32031c14.7207 5.16797 28.3525 12.5439 41.6807 20.5439c11.5195 6.91211 22.8154 14.0801 31.8076 24.2725
c11.3438 12.8477 17.2637 27.5996 15.7598 44.9434c-0.671875 7.91992 -2.81543 15.4561 -6.41602 22.7998v0c22.8008 18.3359 43.1201 40.1445 57.8242 65.2002z" />
    <glyph glyph-name="creditsFirstInSearch" unicode="&#xf13a;" 
d="M401.264 226.64v-0.03125c0 -0.304688 0.0166016 -0.608414 0.0166016 -0.912125v-1.9043v-1.9043c0 -0.303711 -0.0166016 -0.607422 -0.0166016 -0.912109c-0.015625 -0.927734 -0.0478516 -1.85547 -0.0800781 -2.76758
c-0.0478516 -1.08789 -0.111328 -2.19238 -0.175781 -3.2959v-0.015625c-0.015625 -0.224609 -0.015625 -0.464844 -0.0322266 -0.688477h-0.015625c-2.27148 -31.4404 -15.7275 -55.168 -33.7598 -72.6396c-20.3682 -19.7441 -52.4639 -34.5928 -86.2402 -32.2725
c-30.6719 2.1123 -55.792 14.7842 -74.7363 33.7119c-19.3594 19.3604 -33.2793 46 -33.2959 80.1123v0.6875v0.688477c0.0166016 34.1279 13.9199 60.752 33.2959 80.1123c18.9287 18.9277 44.0645 31.5996 74.7363 33.7119
c33.7764 2.33594 65.8721 -12.5283 86.2402 -32.2725c18.0322 -17.4717 31.4883 -41.2002 33.7598 -72.6396h0.015625c0.0166016 -0.224609 0.0166016 -0.463867 0.0322266 -0.688477v-0.015625c0.0800781 -1.10449 0.12793 -2.20802 0.175781 -3.29591
c0.0322266 -0.912109 0.0644531 -1.83981 0.0800781 -2.76852zM335.232 158.784h-0.0166016v23.4561h-27.6641v111.248h-29.8242c-0.239258 -3.61621 -1.15137 -6.6084 -2.70312 -9.02441c-1.55273 -2.41602 -3.9043 -4.36816 -7.02441 -5.87207
c-2.63965 -1.26367 -5.93555 -2.14355 -9.9043 -2.65625c-3.96777 -0.511719 -8.11134 -0.767578 -12.4317 -0.767578v-21.9199h28.2881v-71.0078h-28.2881v-23.4561h89.5684zM256 448c141.392 0 256 -114.608 256 -256c0 -141.376 -114.624 -256 -256 -256
s-256 114.624 -256 256c0 141.392 114.624 256 256 256zM119.44 26.0322h-0.0166016c0.751953 0.0322266 45.5205 44.5596 60.9766 62.2559c-10.0322 10.1436 -19.4561 20.9277 -30.6562 29.9043c-21.0723 -21.6162 -39.3125 -39.8242 -60.9766 -60.8643
c6.59277 -8.0957 29.6641 -31.3438 30.6728 -31.2959zM390.544 114.864v-0.0166016c26.1123 25.5039 46.6885 60.7207 46.6885 108.496l-2.0166 0.448242l2.0166 0.448242c0 47.7754 -20.5762 82.9922 -46.6885 108.512c-25.2158 24.6396 -69.5518 45.7285 -116.384 40.3359
c-59.5039 -6.84766 -102.4 -39.0879 -123.312 -86.4482l-0.0478516 0.0166016c-8.7041 -18.7207 -13.5361 -40.3359 -13.4395 -62.8486c-0.0966797 -22.5117 4.73535 -44.1279 13.4395 -62.8477l0.0478516 0.015625c20.9287 -47.3438 63.8086 -79.5996 123.312 -86.4473
c46.832 -5.39258 91.168 15.6953 116.384 40.3359z" />
    <glyph glyph-name="creditsGift" unicode="&#xf13b;" 
d="M220.432 329.44c15.1523 -14.1279 20.3359 -35.4404 18.2246 -39.6641c0 -0.0166016 -1.63184 -1.00879 -6.17578 -1.00879c-12.9121 0 -30.8486 7.63281 -41.7285 17.7764c-8.89551 8.28809 -12.0635 17.4883 -12.0635 23.3125c0 5.21582 2.27148 7.31152 3.00781 8
c3.26367 3.05566 8.39941 3.50391 11.168 3.50391c9.24805 0 19.5674 -4.46387 27.5674 -11.9199zM333.328 329.856c0 -5.84082 -3.16797 -15.0244 -12.0479 -23.3125c-10.8965 -10.1279 -28.832 -17.7764 -41.7441 -17.7764
c-3.72852 0 -5.50391 0.672852 -5.79199 0.672852h-0.0322266c-2.38379 4.86328 2.83203 25.9678 17.8721 40c8.01562 7.45605 18.3359 11.9199 27.584 11.9199c2.76758 0 7.87207 -0.448242 11.1523 -3.50391c0.751953 -0.688477 3.00781 -2.80078 3.00781 -8zM256 448
c141.392 0 256 -114.608 256 -256c0 -141.376 -114.624 -256 -256 -256s-256 114.624 -256 256c0 141.392 114.624 256 256 256zM244.432 41.4883v104.048h-127.151v-80.9277c0 -12.7041 10.3994 -23.1201 23.1201 -23.1201h104.031zM394.72 64.6084v80.9277h-129.12
v-104.048h106c12.7207 0 23.1201 10.416 23.1201 23.1201zM394.72 168.656h0.0478516v0v78.9756c0 12.7197 -10.3994 23.1201 -23.1191 23.1201h-57.1523c7.37598 3.74414 14.2715 8.41602 19.9043 13.6641c21.4717 20 25.3438 48.832 8.63965 64.4004
c-7.00781 6.52734 -16.4961 9.67969 -26.7363 9.67969c-14.2393 0 -29.9199 -6.0957 -42.3994 -17.7285c-7.24805 -6.75195 -13.4404 -15.4551 -17.8721 -24.5918c-4.43262 9.13672 -10.624 17.8242 -17.8721 24.5918c-12.4805 11.6328 -28.1758 17.7285 -42.4004 17.7285
c-10.2559 0 -19.7441 -3.16797 -26.7354 -9.67969c-16.7207 -15.5684 -12.832 -44.4004 8.63965 -64.4004c5.63184 -5.23242 12.5117 -9.9043 19.9043 -13.6641h-57.1523c-12.7041 0 -23.1201 -10.4004 -23.1201 -23.1201v-78.9756h127.152v93.8398
c4.22363 1.15234 7.98341 3.04004 10.9756 5.83984c0.208008 0.208008 0.368164 0.448242 0.576172 0.65625c0.223633 -0.208008 0.368164 -0.448242 0.591797 -0.65625c2.52832 -2.35156 5.58398 -4.06348 9.00781 -5.23242v-94.4473h129.12z" />
    <glyph glyph-name="creditsMiab" unicode="&#xf13c;" 
d="M256 448c141.392 0 256 -114.608 256 -256c0 -141.376 -114.624 -256 -256 -256s-256 114.624 -256 256c0 141.392 114.624 256 256 256zM342.208 62.832c12.416 4.91211 24.6084 10.4004 35.9043 17.9043c-25.7607 -4.67188 -51.0879 -8.35254 -76.0322 -9.04004
c-12.4316 -0.255859 -24.752 0.191406 -36.6084 2.15918c-5.91992 1.00879 -11.7432 2.24023 -17.3115 4.1123c-5.42383 1.63184 -11.0244 4.09668 -16.5283 6.81641c-11.0234 5.28027 -21.9678 12.5762 -34.7676 18.5439
c-12.7197 6.06348 -26.9121 9.55177 -40.5762 10.0957c-13.4883 0.704102 -28.0801 -1.02345 -40.7842 -7.28028c-12.6396 -6.22363 -23.9678 -16.2871 -29.8242 -29.5195c9.64844 9.77637 21.2959 15.5996 33.0879 18.1123
c11.9043 2.5918 23.6484 1.91992 35.7285 -0.512695c12 -2.28809 23.0244 -6.28809 33.7275 -12.2236c10.6885 -5.83984 21.792 -13.6318 34.4004 -19.8564c6.28809 -3.05566 12.752 -5.77539 19.792 -7.82324c6.86426 -1.91992 13.7598 -3.16797 20.6396 -3.83984
c13.7607 -1.26465 27.3604 -0.480469 40.5762 1.77539s26.0957 5.83984 38.5762 10.5762zM412.224 284.432h0.0166016c6.94336 6.94434 5.56738 22.6885 -5.04004 33.248c-10.5918 10.5605 -26.1445 12.1123 -33.0879 5.15234v0s-51.3281 -50.8477 -65.7441 -65.1357
s-28.1924 0.12793 -47.8721 0.223633c-27.6797 0.12793 -47.7285 -6.04787 -55.9365 -14.1123c-7.79199 -7.64746 -57.4395 -56.4795 -91.6641 -90.2392c7.34473 1.32812 15.0566 2.03125 23.1367 2.03125c2.41602 0 4.86328 -0.0634766 7.31152 -0.175781
c18.5283 -0.719727 37.2959 -5.24805 54.1279 -13.0078c8.52832 -3.85547 16.0166 -7.95215 23.2803 -11.9355c5.69629 -3.12012 11.0723 -6.06446 16.1758 -8.43262l0.240234 -0.11132c6.14355 -2.92871 11.1357 -4.94433 15.2637 -6.14452l0.320312 -0.0957108
l0.320297 -0.112305c4.35158 -1.4082 9.51955 -2.57617 16.1602 -3.66406c9.00781 -1.43945 19.0879 -2.14355 30.832 -2.14355c2.15918 0 4.33594 0.015625 6.35156 0.0634766c6.0957 0.160156 12.2236 0.52832 18.3203 0.992188
c2.15918 0.383789 3.37598 0.608398 3.37598 0.608398c2.03125 0 3.58398 2.7832 4.5918 3.74316c3.3916 4.95996 13.9678 28.3047 14.0957 55.9688c0.0966797 19.6797 -14.7197 33.9521 -0.303711 48.2393c14.416 14.2881 65.7275 65.04 65.7275 65.04z" />
    <glyph glyph-name="creditsPickMe" unicode="&#xf13d;" 
d="M256 448c141.392 0 256 -114.608 256 -256c0 -141.376 -114.624 -256 -256 -256s-256 114.624 -256 256c0 141.392 114.624 256 256 256zM119.44 26.0322h-0.0166016c0.751953 0.0322266 45.5205 44.5596 60.9766 62.2559
c-10.0322 10.1436 -19.4561 20.9277 -30.6562 29.9043c-21.0723 -21.6162 -39.3125 -39.8242 -60.9766 -60.8643c6.59277 -8.0957 29.6641 -31.3438 30.6728 -31.2959zM390.544 114.864v-0.0166016c26.1123 25.5039 46.6885 60.7207 46.6885 108.496l-2.0166 0.448242
l2.0166 0.448242c0 47.7754 -20.5762 82.9922 -46.6885 108.512c-25.2158 24.6396 -69.5518 45.7285 -116.384 40.3359c-59.5039 -6.84766 -102.4 -39.0879 -123.312 -86.4482l-0.0478516 0.0166016c-8.7041 -18.7207 -13.5361 -40.3359 -13.4395 -62.8486
c-0.0966797 -22.5117 4.73535 -44.1279 13.4395 -62.8477l0.0478516 0.015625c20.9287 -47.3438 63.8086 -79.5996 123.312 -86.4473c46.832 -5.39258 91.168 15.6953 116.384 40.3359zM401.28 225.728v-0.03125v-1.9043s0.015625 -1.28027 0 -1.9043
c0 -0.303711 -0.0166016 -0.607422 -0.0166016 -0.912109c-0.015625 -0.927734 -0.0478516 -1.85547 -0.0800781 -2.76758c-0.0478516 -1.08789 -0.111328 -2.19238 -0.175781 -3.2959v-0.015625c-0.015625 -0.224609 -0.015625 -0.464844 -0.0322266 -0.688477h-0.015625
c-2.27148 -31.4404 -15.7275 -55.168 -33.7598 -72.6396c-20.3682 -19.7285 -52.4639 -34.5928 -86.2402 -32.2725c-30.6719 2.1123 -55.8076 14.7842 -74.7363 33.7119c-19.3594 19.3604 -33.2793 46 -33.2959 80.1123v0.6875v0.688477
c0.0166016 34.1279 13.9199 60.752 33.2959 80.1123c18.9287 18.9277 44.0645 31.5996 74.7363 33.7119c33.7598 2.33594 65.8721 -12.5283 86.2402 -32.2725c18.0322 -17.4717 31.4883 -41.2002 33.7598 -72.6396h0.015625
c0.0166016 -0.224609 0.0166016 -0.463867 0.0322266 -0.688477v-0.015625c0.0800781 -1.10449 0.12793 -2.20802 0.175781 -3.29591c0.0322266 -0.912109 0.0644531 -1.83981 0.0800781 -2.76852c0 -0.303711 0.0166016 -0.607437 0.0166016 -0.912125zM242.112 232.768
v0.0165863c-5.50391 -6.94434 -2.81641 -21.8721 7.15137 -24.0644c9.32812 -2.06348 18.6719 3.56836 18.4805 14.7998c-0.160156 9.76074 -7.63184 15.9365 -17.8877 13.5684c-3.2168 -0.751953 -5.9209 -2.01562 -7.74414 -4.32031zM318.432 151.584l0.0166016 -0.015625
c4.11133 4.86328 7.45605 11.3438 9.53613 18.6396h-80.4961c-0.0322266 -0.944336 0.271484 -1.50391 0.591797 -2.06445c9.31152 -31.2314 48.9756 -41.8076 70.3516 -16.5596zM308.304 218.576c4.27246 -15.2324 30.7207 -12.2725 28.0166 7.4082
c-1.00879 7.2793 -7.58398 13.6475 -17.8887 11.1035c-7.18359 -1.77637 -12.8955 -8.67188 -10.1279 -18.5117zM358.672 255.792h-0.0322266l14.6885 -1.23242c-1.42383 4.68848 -1.2002 4.52832 -3.55176 9.28027c-13.3125 26.8164 -45.0088 51.4404 -89.0088 48.1924
c-12.9756 -0.959961 -23.248 -4.0166 -32.8154 -8.38379c-9.82422 -4.48047 -17.4082 -10.1123 -23.9199 -16.2402c-9.79199 -9.21582 -18.8965 -17.7441 -23.6006 -32.5918l16.9287 0.975571c33.1201 4.95996 59.4395 17.5684 66.7676 46.8164
c2.6084 0.81543 5.05566 0.383789 7.79199 0c6.67188 -29.8408 33.6641 -41.8242 66.752 -46.8164z" />
    <glyph glyph-name="creditsSpotlight" unicode="&#xf13e;" 
d="M256 448c141.392 0 256 -114.608 256 -256c0 -141.376 -114.624 -256 -256 -256s-256 114.624 -256 256c0 141.392 114.624 256 256 256zM355.824 31.5996l-40.2402 122.832l99.4238 77.5205h-119.632l-39.3604 120.032l-40.3994 -120.032h-119.632l100.048 -77.7285
l-40.0322 -122.624l100.016 75.0566z" />
    <glyph glyph-name="cross" unicode="&#xf13f;" 
d="M505.424 379.616l-186.928 -186.929l187.376 -187.392c6.97562 -6.97559 6.97562 -18.2715 0 -25.248l-37.9043 -37.9043c-6.97559 -6.97559 -18.3037 -6.97559 -25.2793 0l-187.376 187.393l-186.864 -186.896c-6.99219 -6.97559 -18.3047 -6.97559 -25.2803 0
l-37.9043 37.9043c-6.97559 6.97559 -6.97559 18.2725 0 25.248l186.864 186.896l-186.896 186.911c-6.97656 6.97656 -6.97656 18.2881 0 25.2646l37.9033 37.8877c6.99219 6.97559 18.3047 6.97559 25.2803 0l186.896 -186.912l186.928 186.944
c6.97559 6.97559 18.3037 6.97559 25.2793 0l37.9043 -37.9043c6.97656 -6.97559 6.97656 -18.2881 0 -25.2637z" />
    <glyph glyph-name="cross2" unicode="&#xf140;" 
d="M249.328 90.6562l-130.752 -130.769l-98.7041 98.6719l130.784 130.769l-130.784 130.768l98.6875 98.6885l130.769 -130.769l130.784 130.769l98.6719 -98.6885l-130.769 -130.768l130.769 -130.769l-98.6719 -98.6719z" />
    <glyph glyph-name="crossOutline" unicode="&#xf141;" 
d="M256 416c-30.2559 0 -59.584 -5.91992 -87.1836 -17.584c-26.6729 -11.2803 -50.6406 -27.4238 -71.2168 -48.0156c-20.5752 -20.5928 -36.7354 -44.5439 -48.0156 -71.2168c-11.6641 -27.5996 -17.584 -56.9277 -17.584 -87.1836s5.9043 -59.584 17.584 -87.1836
c11.2803 -26.6729 27.4238 -50.6406 48.0156 -71.2168c20.5928 -20.5752 44.5439 -36.7354 71.2168 -48.0156c27.5996 -11.6641 56.9277 -17.584 87.1836 -17.584s59.584 5.91992 87.1836 17.584c26.6729 11.2803 50.6406 27.4238 71.2168 48.0156
c20.5752 20.5928 36.7353 44.5439 48.0156 71.2168c11.6641 27.5996 17.584 56.9277 17.584 87.1836s-5.91998 59.584 -17.584 87.1836c-11.2803 26.6729 -27.4238 50.6406 -48.0156 71.2168c-20.5928 20.5752 -44.5439 36.7354 -71.2168 48.0156
c-27.5996 11.6641 -56.9277 17.584 -87.1836 17.584zM256 448v0c141.392 0 256 -114.608 256 -256c0 -141.376 -114.624 -256 -256 -256s-256 114.624 -256 256c0 141.392 114.624 256 256 256zM380.336 270.112l-78.2236 -78.1123l78.2236 -78.1279
c5.08789 -5.07227 5.08789 -13.2959 0 -18.3682l-27.5996 -27.584c-5.08789 -5.07227 -13.3281 -5.07227 -18.416 0l-78.2246 78.1279l-78.2236 -78.1279c-5.07227 -5.07227 -13.3125 -5.07227 -18.4004 0l-27.5996 27.584c-5.08789 5.07227 -5.08789 13.2959 0 18.3682
l78.2236 78.1279l-78.2236 78.1123c-5.08789 5.07129 -5.08789 13.3115 0 18.3838l27.5996 27.5684c5.07227 5.07129 13.3125 5.07129 18.4004 0l78.2236 -78.1289l78.2246 78.1289c5.08789 5.07129 13.3438 5.07129 18.416 0l27.5996 -27.5684
c5.08789 -5.07227 5.08789 -13.3125 0 -18.3838z" />
    <glyph glyph-name="crossSolid" unicode="&#xf142;" 
d="M256 448c141.392 0 256 -114.608 256 -256c0 -141.376 -114.624 -256 -256 -256s-256 114.624 -256 256c0 141.392 114.624 256 256 256zM380.336 113.872l-78.2236 78.1279l78.2236 78.1123c5.08789 5.07129 5.08789 13.3115 0 18.3838l-27.5996 27.5684
c-5.08789 5.07129 -13.3281 5.07129 -18.416 0l-78.2246 -78.1289l-78.2236 78.1289c-5.07227 5.07129 -13.3125 5.07129 -18.4004 0l-27.5996 -27.5684c-5.08789 -5.07227 -5.08789 -13.3125 0 -18.3838l78.2236 -78.1123l-78.2236 -78.1279
c-5.08789 -5.07227 -5.08789 -13.2959 0 -18.3682l27.5996 -27.584c5.07227 -5.07227 13.3125 -5.07227 18.4004 0l78.2236 78.1279l78.2246 -78.1279c5.08789 -5.07227 13.3438 -5.07227 18.416 0l27.5996 27.584c5.08789 5.07227 5.08789 13.2959 0 18.3682z" />
    <glyph glyph-name="cuisine" unicode="&#xf143;" 
d="M432 448c44.1758 0 80 -35.8242 80 -80v-432h-96v192h-64v240c0 44.1758 35.8076 80 80 80zM208 448c8.83203 0 16 -7.16797 16 -16v-144c0 -14.1602 -12.5283 -22.0479 -26.4961 -32c-17.6162 -12.5283 -37.5039 -28.3203 -37.5039 -64v-256h-96v256
c0 35.6797 -19.9043 51.4717 -37.5039 64c-13.9678 9.95215 -26.4961 17.8398 -26.4961 32v144c0 8.83203 7.16797 16 16 16s16 -7.16797 16 -16v-112c0 -4.41602 7.16797 -8 16 -8s16 3.58398 16 8v112c0 8.83203 7.16797 16 16 16s16 -7.16797 16 -16v-112
c0 -4.41602 7.16797 -8 16 -8s16 3.58398 16 8v112c0 8.83203 7.16797 16 16 16s16 -7.16797 16 -16v-112c0 -4.41602 7.16797 -8 16 -8s16 3.58398 16 8v112c0 8.83203 7.16797 16 16 16z" />
    <glyph glyph-name="desktop" unicode="&#xf144;" 
d="M479.536 404.48h-0.016571c21.6484 0 32.6729 -4.40039 32.6562 -26.0166v-307.552c0 -21.6641 -10.5596 -29.4238 -32.208 -29.4238h-181.52v-53.7441c49.792 0 93.6953 -0.015625 93.6953 -0.015625v-8.19238h-264.399v8.19238
c1.51953 0 86.7197 0.015625 86.7197 0.015625v53.7441h-185.936c-21.6162 0 -28.5283 8.7998 -28.5283 30.4473v301.664c0 21.6162 7.36035 30.8809 28.9922 30.8809h450.544zM458.72 104.96v0.015625v239.744c0 12.2559 -1.45609 14.0166 -18.5596 14.0166h-371.521
c-13.9355 0 -15.168 -1.34473 -15.168 -18.2246v-233.872c0 -16.96 3.61621 -19.4072 14.7686 -19.4072h374.784c11.7432 0 15.6953 0.783203 15.6953 17.7275z" />
    <glyph glyph-name="discover" unicode="&#xf145;" 
d="M474.832 188.88l0.015625 0.0166016c14.752 -64.0967 -2.25589 -120.576 -47.4717 -169.393c-24.7197 -26.6719 -54.3682 -47.4082 -86.4004 -65.168c-23.04 -9.4082 -45.1514 -15.9678 -65.5996 -18.3037c35.7598 26.3037 109.536 88.3682 109.536 140.512
c0 41.7764 -24.6406 81.9199 -68.4805 81.9199c-43.8721 0 -60.0156 -41.9043 -60.0156 -41.9043s-18.4639 41.9043 -60 41.9043c-45.4082 0 -69.2637 -40.9443 -69.2637 -81.9199c0 -52.5762 77.1836 -114.912 112.256 -140.512
c-50.3203 1.71191 -83.8086 18.3359 -83.8086 18.3359c-27.2637 14.9277 -53.3594 31.4082 -76.0312 52.4961c-18.4482 17.168 -33.2969 36.6396 -41.3604 60.416c-8.22363 24.2881 -7.44043 48.8154 -2.40039 73.5361c4.64062 22.8154 14.3047 43.7598 24.5439 64.5918
c9.93653 20.208 19.9199 40.4795 28.5439 61.2158c4.52832 10.8799 6.24023 22.8164 9.2168 34.3682c14.8799 -24.1602 18.6553 -51.2646 19.8555 -79.2158c0.751953 0.335938 1.24804 0.416016 1.48827 0.719727c31.3916 37.2803 59.6963 76.5117 79.1524 120.992
c12.4951 28.5439 20.3516 58.0957 18.9434 89.4082c-0.208008 4.7832 -0.751953 9.53516 -1.21582 15.1191c2.76758 -1.07129 5.05566 -1.85547 7.24805 -2.83203c31.3604 -13.9355 56.5117 -35.2793 77.7764 -61.0713c28.0312 -34.0166 45.9033 -72.8164 57.9678 -114.336
c0.208008 -0.736328 0.399414 -1.45605 0.65625 -2.16016c0.0957031 -0.272461 0.335938 -0.512695 1.08789 -1.63184c3.08789 4.03125 6.36816 7.56738 8.76758 11.5996c8.64062 14.5283 10.7041 30.4316 8.6084 46.7197
c-1.3125 10.1602 -4.22461 20.1279 -6.41602 30.0967c1.2959 -1.02441 3.12012 -2.32031 4.75195 -3.85645c48.208 -45.168 83.376 -97.8721 98.0479 -161.664z" />
    <glyph glyph-name="dish" unicode="&#xf146;" 
d="M32 -32h448v-32h-448v32zM256 256c14.1436 0 25.584 -11.4561 25.584 -25.5996c0 -14.1445 -11.4561 -25.6006 -25.584 -25.6006c-14.1436 0 -25.5996 11.4561 -25.5996 25.6006c0 14.1436 11.4561 25.5996 25.5996 25.5996zM51.2002 0
c0 113.104 91.6963 204.8 204.8 204.8s204.8 -91.6963 204.8 -204.8h-409.616h0.0166016zM429.504 8.52832c0 0 -25.5996 128 -102.384 153.6c51.2002 -51.2002 51.2002 -153.6 51.2002 -153.6h51.1992h-0.015625zM166.4 371.2c-7.04004 14.0801 -7.04004 25.5996 0 25.5996
s18.5596 -11.5195 25.5996 -25.5996s7.04004 -37.1201 0 -51.2002c-7.05566 -14.0801 -7.04004 -37.1201 0 -51.2002s7.04004 -25.5996 0 -25.5996s-18.5596 11.5195 -25.5996 25.5996s-7.04004 37.1201 0 51.2002s7.04004 37.1201 0 51.2002zM243.2 422.4
c-7.04004 14.0801 -7.04004 25.5996 0 25.5996s18.5596 -11.5195 25.5996 -25.5996s7.04004 -37.1201 0 -51.2002s-7.04004 -37.1201 0 -51.2002s7.04004 -25.5996 0 -25.5996s-18.5596 11.5195 -25.5996 25.5996s-7.04004 37.1201 0 51.2002s7.04004 37.1201 0 51.2002z
M320 371.2c-7.05566 14.0801 -7.02441 25.5996 0 25.5996s18.5439 -11.5195 25.584 -25.5996c7.05566 -14.0801 7.04004 -37.1201 0 -51.2002s-7.04004 -37.1201 0 -51.2002c7.05566 -14.0801 7.02441 -25.5996 0 -25.5996s-18.5439 11.5195 -25.584 25.5996
c-7.05566 14.0801 -7.04004 37.1201 0 51.2002s7.04004 37.1201 0 51.2002z" />
    <glyph glyph-name="download" unicode="&#xf147;" 
d="M256 -62.6719c-140.432 0 -254.672 114.336 -254.672 254.896c0 140.305 114.24 254.448 254.672 254.448s254.672 -114.144 254.672 -254.448c0 -140.56 -114.256 -254.896 -254.672 -254.896zM256 401.728c-115.648 0 -209.728 -93.9834 -209.728 -209.504
c0 -115.775 94.0791 -209.968 209.728 -209.968s209.744 94.1924 209.744 209.968c-0.0166016 115.521 -94.0957 209.505 -209.744 209.504zM291.408 192.24h70.8633l-106.271 -106.32l-106.304 106.32h70.8633v106.08h70.8486v-106.08z" />
    <glyph glyph-name="download2" unicode="&#xf148;" 
d="M256 160l-128 128h96v128h64v-128h96zM372.368 212.368l139.647 -52.3682v-128l-256 -96l-256 96v128l139.633 52.3682l35.8711 -35.8721l-130.031 -48.4961l210.527 -78.5117l210.528 78.5117l-130.048 48.4961z" />
    <glyph glyph-name="drink" unicode="&#xf149;" 
d="M480.032 380.976l-0.032196 0.0166016c0 -13.8086 -1.37598 -27.2959 -3.8877 -40.4004h1.02344l-6.06348 -20.7041c-0.0166016 -0.111328 -0.0644836 -0.223633 -0.0967102 -0.335938c-0.639648 -2.14355 -1.32715 -4.28809 -2.03125 -6.39941
c-0.672852 -2.04785 -1.37598 -4.06445 -2.1123 -6.08008c-0.208008 -0.560547 -0.415985 -1.13672 -0.623993 -1.71191c-21.0557 -56.8008 -64.2725 -100.816 -118.832 -124.128c-22.6719 -9.95215 -47.3281 -16.3203 -59.3916 -18.3525v-194.432h95.9355
c9.13574 0 16.5439 -7.26465 16.5439 -16.2246s-7.4082 -16.2236 -16.5439 -16.2236h-256.368c-9.13574 0 -16.5439 7.26367 -16.5439 16.2236s7.4082 16.2246 16.5439 16.2246h96.4326v194.191c-11.0879 1.82422 -37.8242 8.73633 -62.208 19.8408
c-53.0723 23.584 -95.1045 66.9277 -115.856 122.592c-0.383789 1.02344 -0.751953 2.04785 -1.12012 3.08789c-0.543945 1.51953 -1.07227 3.05566 -1.58398 4.5918c-1.00781 2.97559 -1.93555 6 -2.81543 9.04004l-5.52051 18.7842h1.00781
c-2.52734 13.168 -3.91992 26.7363 -3.91992 40.624c0 19.5195 2.64062 39.0879 7.39258 55.1201c2.06348 6.92773 8.52734 11.6797 15.8877 11.6797h401.52c7.34473 0 13.8242 -4.75195 15.8887 -11.6797c4.75195 -16 7.37595 -35.6641 7.37595 -55.3447zM65.0557 381.2
c0 -13.9521 1.63281 -27.5361 4.6084 -40.624h372.704c2.95996 13.0234 4.55957 26.5273 4.55957 40.3994c0 11.8564 -1.15137 23.9365 -3.23145 34.5928h-375.424c-2.09668 -10.6084 -3.2168 -22.4482 -3.2168 -34.3682z" />
    <glyph glyph-name="editComment" unicode="&#xf14a;" 
d="M302.624 270.736l-102.592 -102.593l-12.624 12.624l102.592 102.593zM512.08 233.792c0 -0.480469 0.015625 -0.959961 0.015625 -1.45605c0 -95.3916 -73.2314 -170.08 -174.72 -198.544c-25.248 -7.08789 -51.0879 -9.48828 -79.1523 -9.48828
c-29.5195 0 -59.0078 4.57617 -85.376 12.3682c-56.4961 -53.0078 -239.296 -150.128 -147.248 -70.4316c31.7129 27.4395 44.6406 68.1914 59.792 106.607c-51.2158 39.4404 -85.3916 93.7285 -85.3916 156.929c0 119.12 116.224 218.224 257.072 218.224
c140.271 0 254.063 -95.7764 255.008 -214.208zM204.704 134.16l135.568 135.567l-51.2969 51.2969l-135.567 -135.568l-14.6562 -65.9521zM365.92 295.376c4.5918 6.12793 7.32812 13.7441 7.32812 21.9844c0 20.2393 -16.4004 36.6396 -36.6396 36.6396
c-8.25684 0 -15.8564 -2.73633 -21.9844 -7.32812l-14.6562 -14.6562l51.2959 -51.2959z" />
    <glyph glyph-name="education" unicode="&#xf14b;" 
d="M255.984 390.336l256 -134.72l-72.7842 -39.792v-117.04c0 -25.3926 26.9599 -26.96 26.9599 -26.96v-26.9277s-53.8877 0 -53.8877 53.8877v101.872l-156.288 -79.7598l-255.984 134.72zM134.736 128.384h0.015625l121.248 -58.96l121.264 58.96v-53.8877
c1.28027 -13.3125 -22.208 -31.3125 -40.3994 -40.416l-80.8643 -40.4004l-94.3203 40.4004c-18.208 9.10352 -26.9434 27.04 -26.9434 40.416v53.8877z" />
    <glyph glyph-name="emtpy-cloud" unicode="&#xf14c;" 
d="M238.768 -11.584c-48.6553 0 -97.3115 -0.192383 -145.968 0.0644531c-45.9521 0.207031 -82.832 33.4072 -91.0879 81.4551c-10.4795 60.9766 37.1201 117.984 95.5361 114.416c5.91992 -0.367188 5.91992 -0.367188 3.93555 5.82422
c-29.0078 90.9277 26.6406 188.864 115.713 203.632c82.1279 13.6328 159.136 -49.4561 167.92 -137.647c0.416016 -4.24023 1.59961 -5.75978 5.83984 -5.95216c60.2881 -2.67188 108.352 -48.0957 118.048 -111.328c10.4795 -68.3037 -34.8477 -136.144 -98.9277 -148.063
c-8.62402 -1.60059 -17.2803 -2.46484 -26.0488 -2.43262c-48.3193 0.0966797 -96.6396 0.0478516 -144.943 0.0478516v0zM240.192 2.97559c47.8076 0 95.6152 0.0322266 143.424 -0.03125c6.86426 -0.0166016 13.7275 0.335938 20.4961 1.4873
c77.6152 13.04 117.312 107.601 74.7353 177.92c-29.1836 48.1924 -86.5439 66.2881 -136.72 43.1045c-6.04785 -2.7998 -10.1123 -1.90428 -11.8555 2.60841c-1.71289 4.41602 0.255859 7.91992 6.04785 10.7354c9.08789 4.41602 18.5762 7.44043 28.3682 9.37598
c7.2959 1.45605 7.2959 1.4082 6.25586 9.36035c-10.5928 80.9443 -80.1123 134.912 -155.904 121.023c-68.0645 -12.4639 -117.328 -85.8398 -106.624 -158.544c2.06445 -14 5.80762 -27.3594 11.248 -40.2393c1.47168 -3.48828 2.62402 -6.84863 0 -10.2402
s-6.01562 -2.84766 -9.45605 -1.91992c-0.671875 0.191406 -1.32812 0.335938 -2 0.479492c-58.208 12.4326 -107.808 -45.4561 -90.7363 -105.92c9.93652 -35.168 40.0645 -59.0713 75.168 -59.168c49.1846 -0.160156 98.3682 -0.0322266 147.536 -0.0478516v0z
M255.216 99.0557c17.1045 0 34.2402 0.0166016 51.3438 -0.015625c7.64844 -0.015625 9.82422 -2.28809 9.88867 -10.3682c0.0634766 -8.38379 0.12793 -16.7842 -0.0166016 -25.1523c-0.303711 -17.6953 -11.8555 -30.3193 -27.4873 -30.2236
c-15.5684 0.12793 -26.9766 12.9121 -27.1523 30.5762c-0.0478516 4.73633 -0.272461 9.50391 0.0644531 14.2236c0.335938 4.67188 -0.976562 6.32031 -5.64844 6.24023c-16.9443 -0.303711 -33.8877 -0.12793 -50.832 -0.12793
c-1.53613 0 -3.08789 -0.0644531 -4.62402 0.0634766c-4.12793 0.320312 -6.78418 2.5127 -7.07227 7.07227c-0.271484 4.16016 2.64062 7.39258 7.12012 7.60059c5.12012 0.239258 10.2725 0.0957031 15.4082 0.0957031
c13.0078 0.015625 26.0156 0.015625 39.0078 0.015625v0zM302.464 70.96h0.0644531c0 3.12012 -0.0966797 6.20801 0.03125 9.3125c0.0966797 2.67188 -0.655273 4.03125 -3.45605 3.96777c-6.67188 -0.12793 -13.3438 -0.0478516 -20.0156 -0.0478516
c-1.91992 0.015625 -3.45605 -0.384766 -3.42383 -2.91211c0.0634766 -7.10449 -0.303711 -14.2725 0.320312 -21.3125c0.639648 -7.2002 7.04004 -12.3359 13.7432 -12.0801c6.84863 0.272461 12.1768 5.72852 12.7041 13.2324
c0.240234 3.26367 0.0488281 6.55957 0.0488281 9.83984v0h-0.0166016zM173.024 171.568c4.33594 -0.12793 6.39941 -3.85645 9.05566 -6.56055c5.3916 -5.43945 3.93555 -5.48828 9.28027 0.0478516c1.58398 1.64844 3.05566 3.48828 4.83203 4.87988
c3.18359 2.5127 6.49609 2.30469 9.21582 -0.783203c2.57617 -2.91211 2.60742 -6.30469 0.255859 -9.4082c-1.59961 -2.1123 -3.34375 -4.22461 -5.36035 -5.83984c-3.82324 -3.08789 -3.2793 -5.61621 0.160156 -8.5127
c1.85645 -1.55176 3.50391 -3.4873 5.02441 -5.43945c2.52734 -3.26367 2.5918 -6.78418 -0.240234 -9.82422c-2.7998 -3.00781 -6.08008 -3.02344 -9.26367 -0.511719c-3.4082 2.67188 -5.63281 8.73535 -9.4248 8.36816
c-3.21582 -0.304688 -5.93555 -5.50391 -9.07129 -8.27246c-3.04004 -2.67188 -6.43262 -2.6875 -9.23242 0.352539c-2.76758 3.00781 -2.75195 6.60742 -0.288086 9.87109c1.58398 2.1123 3.36035 4.19238 5.36035 5.84082
c3.56836 2.94336 3.08789 5.2793 -0.160156 8.06348c-2.1123 1.82422 -3.96777 4.04785 -5.64844 6.32031c-1.72754 2.35156 -1.71191 5.10352 -0.399414 7.72754c1.23145 2.44824 3.28027 3.61621 5.87207 3.71191zM309.232 127.856
c-2.43262 0.12793 -4.56055 1.43946 -5.84082 4.11134c-1.2959 2.75195 -0.959961 5.42383 0.864258 7.66406c2.1123 2.6084 4.40039 5.07227 6.78418 7.42383c2 1.96875 1.85645 3.50391 -0.0957031 5.37598c-2.14453 2.06445 -4.19238 4.28809 -6.12793 6.59277
c-2.78418 3.31152 -3.15234 6.97559 -0.160156 10.2393c2.95996 3.23242 6.35156 3.05664 9.66406 0.272461c3.18359 -2.68848 5.3916 -8.40039 9.02344 -8.1123c3.05664 0.240234 5.72852 5.2002 8.67188 7.93652c3.13672 2.91211 6.6084 3.2793 9.63281 0.0478516
c2.97559 -3.2002 2.65527 -6.81641 0.0957031 -10.3359c-2.48047 -3.39258 -7.91992 -5.64844 -7.48828 -9.63184c0.352539 -3.34473 4.97656 -6.06445 7.50391 -9.23242c2.7207 -3.3916 2.83203 -7.12012 -0.191406 -10.2725
c-3.07227 -3.18359 -6.48047 -2.6875 -9.66406 0.192383c-2.99219 2.68848 -5.15234 7.93652 -8.64062 7.98438c-3.50391 0.0322266 -5.69531 -5.21582 -8.65527 -7.93652c-1.45605 -1.34375 -3.05664 -2.28808 -5.39258 -2.28808z" />
    <glyph glyph-name="enter" unicode="&#xf14d;" 
d="M291.856 119.952c-3.84082 0 -7.44043 1.48828 -10.1445 4.20801l-40.9922 40.9922c-5.59961 5.59961 -5.59961 14.7041 0 20.2881l40.9922 40.9912c2.7041 2.7041 6.32031 4.20799 10.1445 4.20799c3.82324 0 7.43945 -1.48729 10.1436 -4.20799
c5.59961 -5.59961 5.59961 -14.7041 0 -20.2881l-16.8799 -16.8799h57.2637v147.92h-23.7754c-7.9209 0 -14.3525 6.43262 -14.3525 14.3525s6.43262 14.3516 14.3525 14.3516h38.1279c7.91992 0 14.3516 -6.43164 14.3516 -14.3516v-176.608
c0 -7.91992 -6.43164 -14.3516 -14.3516 -14.3516h-70.832l16.0957 -16.0957c2.7041 -2.7041 4.20801 -6.32031 4.20801 -10.1445s-1.48828 -7.43946 -4.20801 -10.1436c-2.7041 -2.7041 -6.32031 -4.20801 -10.1436 -4.20801v-0.0322266zM240.496 -60.4482
l17.8555 0.0800781h-53.5039v-0.0800781c-18.5918 0 -33.7119 15.1201 -33.7119 33.7119v95.6963l0.0166016 19.5361v166.752c0 1.95213 -1.52051 3.53612 -3.44043 3.67967l-83.7764 -0.0634766c-18 0 -32.6553 15.1201 -32.6553 33.7119l-0.224609 120.112
c0 18.5918 15.1201 33.7119 33.7119 33.7119h345.168c18.5928 0 33.7129 -15.1201 33.7129 -33.7119v-439.425c0 -18.5918 -15.1201 -33.7119 -33.7129 -33.7119h-189.439zM258.368 -30.3516l-17.8564 -0.064455h189.44c2.04785 0 3.71191 1.66406 3.71191 3.71191v439.424
c0 2.04785 -1.66406 3.71191 -3.71191 3.71191h-345.168c-2.04785 0 -3.71191 -1.66406 -3.71191 -3.71191l0.223633 -120.111c0 -2.19238 1.39258 -3.71191 2.65625 -3.71191h83.5039v0.0791016c18.5918 0 33.7119 -15.1191 33.7119 -33.7119v-145.76l-0.015625 -10.5439
v-125.696c0 -1.95117 1.51953 -3.53516 3.43945 -3.67969v0.064455h53.7764z" />
    <glyph glyph-name="envelope" unicode="&#xf14e;" 
d="M492.432 341.04c-57.1035 -38.9121 -114.224 -77.8242 -171.344 -116.736c-14.7842 -10.0635 -29.584 -20.1113 -44.3838 -30.1602c-10.9922 -7.47168 -25.7598 -7.51953 -36.6719 -0.12793c-14.416 9.77637 -28.832 19.5684 -43.2324 29.3926
c-57.1836 38.96 -114.384 77.9199 -171.567 116.896c-1.76074 1.2002 -3.44043 2.49609 -4.86426 4.44824h475.888c0.0644531 -0.223633 0.144501 -0.448242 0.207977 -0.65625c-1.34375 -1.02344 -2.65625 -2.11133 -4.06348 -3.05566h0.03125zM59.7441 42.7998
c37.792 38.5605 75.584 77.1045 113.392 115.648c8.27246 8.43164 16.6562 16.752 24.8643 25.2637c1.69629 1.75977 2.83203 1.93652 4.87988 0.52832c11.7598 -8.14453 23.456 -16.4326 35.5205 -24.0967c13.3594 -8.47949 27.2959 -8.52734 40.6397 -0.0478516
c13.2324 8.41602 26.0635 17.4883 38.9756 26.416c2.28809 1.58398 3.60059 1.71191 5.72852 -0.447266c46.5117 -47.5205 93.1201 -94.9609 139.696 -142.416c0.783203 -0.800781 1.50388 -1.66406 2.97556 -3.32812
c-3.95215 -0.416016 -7.05569 -1.04004 -10.1602 -1.04004c-63.3281 -0.0478516 -126.656 -0.0478516 -189.983 -0.0478516h-209.856c1.59961 1.72754 2.44824 2.65527 3.3125 3.55176zM13.2803 71.3604c-0.0644531 0.81543 -0.0322266 1.63184 -0.0322266 2.46387
c0 74.8633 -0.015625 149.728 0.0634766 224.592c0 3.37598 0.928712 6.75195 1.4082 9.96777c4.12793 -3.24805 7.58398 -6.30371 11.3604 -8.87988c36.3037 -24.7998 72.6396 -49.5361 108.992 -74.2715c9.63184 -6.56055 19.3281 -13.0244 28.9756 -19.5527
c1.02441 -0.6875 1.98438 -1.4873 2.64062 -1.9834c-48.2246 -49.4082 -96.2725 -98.624 -144.656 -148.177c-5.32812 3.85645 -8.17578 9.18457 -8.76855 15.8408h0.0166016zM351.776 204.336c49.3438 33.4717 99.1836 67.168 149.136 101.568
c0.335938 -2.64062 1.10355 -5.88867 1.10355 -9.13672c0.0800781 -45.04 0.0487976 -90.0801 0.0487976 -135.119c0 -30.416 -0.0166016 -60.832 0.015625 -91.248c0 -5.58398 -1.45609 -10.5283 -5.13577 -14.7207c-48.416 49.5684 -96.7041 99.0244 -145.168 148.656z
" />
    <glyph glyph-name="envelope2" unicode="&#xf14f;" 
d="M16.8965 338.496c-13.9043 7.3916 -27.0088 30.8955 -1.50488 30.8955h481.2c25.5039 0 12.3838 -23.4072 -1.50394 -30.8955s-206.096 -110.784 -213.296 -114.592c-7.2002 -3.79199 -16.416 -5.69629 -25.8076 -5.69629c-9.39258 0 -18.5928 1.9043 -25.792 5.69629
c-7.2002 3.79199 -199.393 107.088 -213.296 114.592zM500.896 281.6h-0.032196c11.2002 5.80859 10.8954 -0.879883 10.8954 -6.19141v-233.504c0 -11.9043 -15.8877 -27.2959 -28.1914 -27.2959h-455.504c-12.2881 0 -28.1924 15.3916 -28.1924 27.2959v233.504
c0 5.18359 -0.0957031 12 11.0078 6.19141c15.792 -8.19141 209.504 -109.584 219.2 -114.592c9.71191 -4.99219 16.4004 -5.69629 25.8076 -5.69629c9.40822 0 16.1123 0.704102 25.8086 5.69629c9.69531 4.99219 203.392 106.4 219.2 114.592z" />
    <glyph glyph-name="eye" unicode="&#xf150;" 
d="M256 352c111.664 0 208.448 -65.0244 256 -160c-47.5684 -94.9756 -144.336 -160 -256 -160s-208.448 65.0244 -256 160c47.5518 94.9756 144.336 160 256 160zM382.224 267.152c-1.96777 1.24805 -3.95117 2.46387 -5.93555 3.64746
c4.99219 -13.6641 7.71191 -28.3994 7.71191 -43.792c0 -70.6875 -57.3125 -128 -128 -128c-70.6885 0 -128 57.3125 -128 128c0 15.376 2.73633 30.1279 7.71191 43.792c-2 -1.18359 -3.98438 -2.39941 -5.93555 -3.64746
c-30.0801 -19.1846 -55.5684 -44.8965 -74.7207 -75.1523c19.1523 -30.2725 44.6406 -55.9678 74.7207 -75.1523c37.792 -24.1113 81.4395 -36.8477 126.224 -36.8477s88.4316 12.7363 126.224 36.8477c30.0801 19.1846 55.5683 44.8965 74.7207 75.1523
c-19.1523 30.2725 -44.6406 55.9678 -74.7207 75.1523zM256 242.992c0 26.5117 -21.4883 48 -48 48s-48 -21.4883 -48 -48s21.4883 -48 48 -48s48 21.4883 48 48z" />
    <glyph glyph-name="facebook" unicode="&#xf151;" 
d="M465.392 -64h-119.712v192l76.6562 0.015625l12.7998 76.8008l-89.4561 0.15918v52.5439c0 22.7529 8.52832 38.2568 41.6006 38.2568l47.8555 2.63965v64c-7.2959 0.959961 -37.5996 6.73633 -66.752 6.73633c-60.7842 0 -99.6162 -36.6084 -99.6162 -103.84v-60.3203
l-76.7998 -0.160156v-76.7998l76.7998 -0.0166016v-192h-222.144c-25.7598 0 -46.624 20.8486 -46.624 46.5606v418.88c0 25.7119 20.8643 46.5596 46.624 46.5596h418.768c25.7441 0 46.624 -20.8477 46.624 -46.5596v-418.88
c0 -25.7119 -20.8799 -46.5606 -46.6396 -46.5606z" />
    <glyph glyph-name="faces" unicode="&#xf152;" 
d="M107.2 130.896c2.60742 -6.6084 5.71192 -12.9121 9.40821 -19.0088c-4.40039 -0.607422 -8.80079 -1.00781 -13.2969 -1.00781c-56.5117 0 -102.304 45.6797 -102.304 102.192c0 56.5117 45.8086 102.208 102.304 102.208c14.6084 0 28.5127 -3.39258 41.1045 -8.89648
c-25.2002 -24.4961 -42.4004 -56.3037 -47.4082 -94.0957h-76.3037c0 -50.4961 36.8955 -82.0957 82.4961 -82.0957c1.4082 0 2.7041 0.607422 4 0.704102zM63.5996 260.896c-9.00781 0 -16.3037 -7.29689 -16.3037 -16.3047s7.2959 -16.3037 16.3037 -16.3037
c9.00879 0 16.3047 7.29588 16.3047 16.3037s-7.3125 16.3047 -16.3047 16.3047zM408.8 315.504l-0.015625 0.0166016c56.4961 0 102.304 -45.792 102.399 -102.192c0 -56.4961 -45.8076 -102.304 -102.304 -102.304c-4.40039 0 -8.7998 0.288086 -13.2002 0.895508
c3.48828 6 6.5918 12.1924 9.2959 18.7998c0.208008 0 1.4082 2.49609 3.10449 7.10449c3.59961 -0.799805 7.2959 -1.2002 11.2002 -1.2002c29.9033 0 54.0957 24.1924 54.0957 54.0957c0 5.10449 -0.704102 10 -2 14.7041
c-6.40039 -22.7041 -27.2959 -39.4082 -52.0957 -39.4082c-1.39258 0 -2.7998 0.0966797 -4.19238 0.192383c5.50391 35.4883 2.7998 91.6963 -47.3916 140.192c12.6074 5.50391 26.4961 9.10352 41.1035 9.10352zM448.4 228.304c9.00781 0 16.3037 7.2959 16.3037 16.3047
c0 9.00781 -7.2959 16.3037 -16.3037 16.3037c-9.00879 0 -16.3047 -7.2959 -16.3047 -16.3037c0 -9.00879 7.2959 -16.3047 16.3047 -16.3047zM256 341.296c82.7998 0 149.904 -67.1035 149.904 -149.904c0 -82.7998 -67.1045 -149.903 -149.904 -149.903
s-149.904 67.1035 -149.904 149.903c0 82.8008 67.1045 149.904 149.904 149.904zM198 261.296c-13.2002 0 -23.9043 -10.7041 -23.9043 -23.9043c0 -13.1992 10.7041 -23.9033 23.9043 -23.9033s23.9043 10.7041 23.9043 23.9033
c0 13.2002 -10.7041 23.9043 -23.9043 23.9043zM329.504 129.504c4.0957 4 4.0957 10.6084 0 14.7041s-10.6074 4.0957 -14.7041 0c-32.3994 -32.4004 -85.2002 -32.4004 -117.6 0c-4.1123 4.0957 -10.6084 4.0957 -14.7041 0s-4.0957 -10.6084 0 -14.7041
c20.3037 -20.3037 46.8955 -30.4004 73.5039 -30.4004s53.2002 10.0967 73.5039 30.4004zM314 213.504c13.2002 0 23.9043 10.7041 23.9043 23.9043s-10.7041 23.9043 -23.9043 23.9043s-23.9043 -10.7041 -23.9043 -23.9043s10.7041 -23.9043 23.9043 -23.9043z" />
    <glyph glyph-name="fame" unicode="&#xf153;" 
d="M256 448c141.392 0 256 -114.608 256 -256s-114.608 -256 -256 -256s-256 114.608 -256 256s114.608 256 256 256zM336.064 0v0.015625c4.38379 32.3203 17.0078 56.7207 47.9355 64.0322c-14.0156 1.85645 -25.0879 9.79199 -33.7275 22.2246
c-8.48047 12.208 -12.7363 26.2715 -14.0488 41.5674c-0.607422 -3.35938 -0.943359 -6.73632 -1.56738 -10.0478c-3.48828 -18.416 -11.2002 -33.9199 -25.2646 -44.9121c-6.41602 -5.02344 -13.584 -7.93555 -21.3916 -8.99219
c0.704102 -0.319336 1.37598 -0.52734 2.06445 -0.639645c6.15918 -0.944336 11.8877 -3.26367 17.1191 -6.94433c15.4248 -10.832 23.7129 -26.9922 27.4561 -46.4473c0.640625 -3.29688 0.976562 -6.64062 1.4248 -9.85645zM365.216 300.768
c41.7764 7.24805 43.3604 33.2646 50.8643 51.1523c-15.0078 -3.82422 -31.5996 -5.10352 -48.1924 -5.10352c-33.7275 0 -67.5039 5.10352 -88.8955 5.10352c-132.32 0 -182.672 -54.1279 -182.672 -110.816c0 -30.7031 20.3516 -41.3594 57.3115 -41.3594
c-0.52832 3.83984 -7.48828 7.24805 -7.48828 28.9922c0 68.1914 28.3682 86.96 69.6328 88.2393l-77.1367 -284.768h77.1367l43.376 160.288h78.2236l8.54395 31.5518h-78.1924l22.4805 84.8164c24.6396 -4.24023 50.3682 -8.09668 75.0078 -8.09668z" />
    <glyph glyph-name="favourite" unicode="&#xf154;" 
d="M256.832 448l63.168 -192h192l-159.568 -124l64.5928 -196.496l-160.192 120.048l-160.528 -120.048l64.2559 196.145l-160.575 124.336h192l64.832 192z" />
    <glyph glyph-name="favouriteAboutMe" unicode="&#xf155;" 
d="M219.92 364.24h0.015625l33.1367 -17.9844l-33.1367 -17.9834c-18.2393 -9.9043 -41.2959 -32.8008 -51.2637 -50.8809l-18.1279 -32.8955l-18.1279 32.8955c-9.98438 18.0801 -33.0557 40.9766 -51.2637 50.8809l-33.1367 17.9834l33.1367 17.9844
c18.208 9.90332 41.2793 32.7998 51.2637 50.8799l18.1279 32.8799l18.1123 -32.8799c9.96777 -18.0957 33.04 -40.9766 51.2637 -50.8799zM364.8 210.256c27.376 0 49.6006 -22.0322 49.6006 -49.2314c0 -27.2002 -22.2402 -49.2168 -49.6006 -49.2168
c-27.4238 0 -49.6162 22.0322 -49.6162 49.2168c0 27.1836 22.1924 49.2314 49.6162 49.2314zM331.6 348.88c-5.79199 10.5117 -19.1836 23.792 -29.792 29.5518l-19.2314 10.4482l19.2314 10.4482c10.6084 5.74414 24.0166 19.04 29.792 29.5518l10.5439 19.1045
l10.5449 -19.1045c5.79199 -10.5117 19.1992 -23.8076 29.7754 -29.5518l19.2646 -10.4482l-19.2646 -10.4482c-10.5762 -5.74414 -23.9834 -19.04 -29.7754 -29.5518l-10.5449 -19.0879zM421.472 90.7197c23.4883 0 42.5127 -18.8955 42.5283 -42.1914v-112.528h-198.416
v112.512c0 23.3125 19.0078 42.208 42.4961 42.208h113.392zM272.976 225.328l-7.3916 -13.3926l-7.37598 13.3926c-4.06445 7.34375 -13.4561 16.6719 -20.8799 20.7041l-13.4883 7.32809l13.4883 7.32716c7.42383 4.03223 16.8154 13.3604 20.8799 20.7207
l7.37598 13.3916l7.3916 -13.3916c4.06445 -7.37598 13.4561 -16.6885 20.8643 -20.7207l13.4883 -7.32716l-13.4883 -7.32809c-7.4082 -4.0166 -16.7998 -13.3438 -20.8643 -20.7041z" />
    <glyph glyph-name="female" unicode="&#xf156;" 
d="M465.392 448c25.7441 0 46.6406 -20.8477 46.6406 -46.5596v-418.881c0 -25.7119 -20.8965 -46.5596 -46.6406 -46.5596h-418.768c-25.7598 0 -46.624 20.8477 -46.624 46.5596v418.881c0 25.7119 20.8643 46.5596 46.624 46.5596h418.768zM371.792 161.888
l0.0322266 -0.015625c25.0557 29.2803 37.7598 63.1836 37.7598 100.8c0 41.7441 -15.1523 78.1279 -45.0723 108.08s-66.2881 45.1523 -108.111 45.1523c-42.0967 0 -78.5605 -15.1523 -108.368 -45.0244c-29.7764 -29.8877 -44.8799 -66.3037 -44.8799 -108.208
c0 -37.7119 12.7197 -71.6162 37.8076 -100.815c24.1436 -27.8721 55.4883 -44.8486 93.2324 -50.5283v-44.8164h-48.7686c-3.12012 0 -5.64746 -2.52734 -5.64746 -5.64746v-32.7842c0 -3.12012 2.52734 -5.64844 5.64746 -5.64844h48.7686v-49.0713
c0 -3.12012 2.52734 -5.64844 5.64746 -5.64844h32.832c3.12012 0 5.64844 2.52832 5.64844 5.64844v49.0713h49.1514c3.12012 0 5.64844 2.52832 5.64844 5.64844v32.7842c0 3.12012 -2.52832 5.64746 -5.64844 5.64746h-49.1514v44.8164
c37.7598 5.67969 69.168 22.6562 93.4717 50.5596zM256.368 371.792c29.9834 0 55.9043 -10.752 77.0557 -31.9844c21.5518 -21.376 32.0166 -46.5918 32.0166 -77.1201c0 -29.9199 -10.7686 -55.8555 -32.0166 -77.0557
c-21.4082 -21.2637 -47.3438 -32.0479 -77.0557 -32.0479c-29.8721 0 -55.8242 10.7842 -77.1357 32.0479c-21.2168 21.1357 -31.9688 47.0723 -31.9688 77.0557c0 29.793 10.752 55.7129 31.9688 77.0088c21.248 21.2959 47.1836 32.0957 77.1357 32.0957z" />
    </font>
</defs>
</svg>
